<svg width="30" height="22" viewBox="0 0 30 22" fill="none" xmlns="http://www.w3.org/2000/svg">
<path d="M30 16.1562C30 19.0039 28.4189 21.3125 25.3125 21.3125H4.6875C1.58109 21.3125 0 19.0039 0 16.1562V5.84375C0 2.99609 1.58109 0.6875 4.6875 0.6875H25.3125C28.4189 0.6875 30 2.99609 30 5.84375V16.1562Z" fill="#EC1C24"/>
<path fill-rule="evenodd" clip-rule="evenodd" d="M12.5656 6.06124C12.8318 6.15545 13.0161 6.33639 13.1403 6.58717C13.2495 6.80983 13.3339 7.0442 13.4628 7.25749C13.5068 7.33014 13.5584 7.39858 13.6048 7.46936C13.6268 7.50452 13.6498 7.50827 13.6845 7.48764C13.7051 7.47499 13.7295 7.46655 13.7534 7.45811C13.774 7.45014 13.7815 7.44077 13.7726 7.41686C13.6521 7.09249 13.6306 6.74889 13.5654 6.41233C13.5204 6.16748 13.4255 5.93452 13.2865 5.72795C13.2809 5.71952 13.2771 5.71014 13.2659 5.68764C13.5012 5.80905 13.6615 5.98108 13.76 6.21077C13.8523 6.42686 13.9034 6.65655 13.9728 6.87967C14.014 7.00952 14.0679 7.13374 14.1261 7.25608C14.1481 7.30483 14.1739 7.31795 14.2264 7.30248C14.3267 7.27295 14.3243 7.27577 14.3093 7.16702C14.2887 7.00972 14.2779 6.85128 14.277 6.69264C14.2746 6.4142 14.2817 6.13623 14.2236 5.86061C14.1923 5.72323 14.1479 5.58917 14.0909 5.4603C14.3121 5.6253 14.4326 5.83342 14.4973 6.07624C14.5592 6.31202 14.5821 6.5553 14.622 6.79577C14.6421 6.9167 14.6703 7.03436 14.7036 7.15155C14.7157 7.19889 14.7359 7.21811 14.7837 7.20733C14.7912 7.20545 14.7973 7.20545 14.8043 7.20545C14.8976 7.19702 14.8986 7.19702 14.8986 7.10374C14.8962 6.82764 14.9656 6.56233 15.0303 6.29655C15.102 6.00545 15.1287 5.71202 15.0818 5.41436C15.0804 5.40405 15.0814 5.39374 15.0814 5.3717C15.2379 5.56436 15.3064 5.77624 15.3129 6.00967C15.32 6.22624 15.2942 6.44186 15.2778 6.65655C15.2671 6.81964 15.2701 6.98333 15.2867 7.14592C15.2946 7.22795 15.3612 7.1942 15.4034 7.20545C15.4545 7.21999 15.4493 7.1792 15.4545 7.14827C15.4953 6.86842 15.6012 6.60874 15.7076 6.34811C15.807 6.10436 15.882 5.85452 15.8764 5.58733C15.8764 5.53436 15.8712 5.48233 15.8679 5.41717C15.9439 5.51795 15.9861 5.62295 16.0151 5.73358C16.0793 5.97874 16.0409 6.22108 15.9837 6.46249C15.9354 6.66592 15.8712 6.86561 15.845 7.07327C15.8389 7.11686 15.8389 7.16045 15.8314 7.20311C15.822 7.2528 15.8365 7.27155 15.8867 7.28186C15.994 7.30249 15.995 7.3067 16.0334 7.19983C16.1154 6.96639 16.2425 6.75592 16.3704 6.54545C16.4848 6.35749 16.5996 6.16811 16.6596 5.95249C16.6882 5.84795 16.7051 5.74202 16.7093 5.61733C16.775 5.72186 16.804 5.82311 16.8148 5.92952C16.835 6.10717 16.7923 6.27592 16.7286 6.44092C16.6329 6.68889 16.505 6.9242 16.4276 7.18014C16.4075 7.24436 16.3934 7.30905 16.3751 7.37327C16.3643 7.41358 16.3765 7.4342 16.4173 7.44967C16.5125 7.48436 16.5101 7.48717 16.5584 7.39389C16.6943 7.12858 16.8889 6.9078 17.0825 6.68655C17.2081 6.54452 17.3286 6.40061 17.4059 6.2253C17.4434 6.13858 17.4696 6.04811 17.4856 5.9403C17.5287 6.04717 17.5339 6.14655 17.5296 6.24499C17.5198 6.44702 17.442 6.62842 17.3421 6.80139C17.209 7.03155 17.0492 7.24717 16.9367 7.48905C16.9161 7.53358 16.9011 7.57858 16.8804 7.62264C16.8636 7.65733 16.8734 7.67467 16.9062 7.69342C16.9878 7.74217 16.9878 7.74452 17.0421 7.66858C17.2236 7.41358 17.4682 7.22561 17.7045 7.02686C17.8807 6.87827 18.05 6.72264 18.1489 6.50749C18.169 6.46483 18.185 6.4203 18.2079 6.36545C18.2487 6.67577 18.1568 6.93405 17.9815 7.16983C17.8226 7.3817 17.6309 7.56686 17.4795 7.78389C17.4374 7.84432 17.3972 7.90607 17.359 7.96905C17.3243 8.02342 17.3848 8.03045 17.4054 8.05717C17.4251 8.08342 17.4439 8.07733 17.4659 8.05483C17.6534 7.86123 17.8775 7.71686 18.1006 7.57108C18.2993 7.44124 18.5 7.31467 18.6645 7.1417C18.7292 7.07373 18.7854 6.99967 18.8417 6.92327C18.8417 7.08124 18.7995 7.22608 18.724 7.36202C18.6045 7.57764 18.4207 7.73514 18.2351 7.88983C18.0687 8.02905 17.9004 8.16405 17.7561 8.32717C17.7176 8.36983 17.7387 8.39045 17.7645 8.42327C17.7926 8.45795 17.8109 8.46686 17.8521 8.43686C18.02 8.31358 18.2089 8.22827 18.3992 8.14764C18.7568 7.9953 19.1182 7.85186 19.4028 7.53967C19.3955 7.6879 19.3441 7.83057 19.2551 7.94936C19.1473 8.09467 19.0015 8.19498 18.8506 8.28733C18.6012 8.43967 18.3411 8.57373 18.1128 8.75608C18.0598 8.7978 18.0579 8.82874 18.0978 8.87749C18.1146 8.89764 18.1245 8.90936 18.1521 8.8967C18.4564 8.75374 18.7854 8.6928 19.107 8.60749C19.3231 8.54983 19.5345 8.48139 19.7187 8.34733C19.7571 8.3192 19.7928 8.28733 19.8312 8.25592C19.8476 8.3553 19.7862 8.50014 19.6892 8.59717C19.5546 8.73499 19.3845 8.81608 19.2096 8.8892C18.9326 9.00639 18.6476 9.10295 18.3795 9.24077C18.3106 9.27592 18.3021 9.31717 18.3509 9.38186C18.3612 9.39639 18.3715 9.39639 18.3846 9.39311C18.8004 9.29139 19.2284 9.28952 19.6479 9.21452C19.8306 9.18536 20.0057 9.12036 20.1631 9.02327C20.1457 9.16249 20.0679 9.2492 19.9686 9.31999C19.8209 9.42686 19.6479 9.47936 19.475 9.52624C19.1731 9.60686 18.8665 9.66499 18.5684 9.76061C18.4953 9.78452 18.4751 9.84967 18.5182 9.91249C18.5281 9.92795 18.5417 9.92514 18.5543 9.92467C18.897 9.90733 19.2387 9.94952 19.5804 9.96545C19.8439 9.97764 20.1045 9.96733 20.3581 9.86795C20.3187 9.9678 20.194 10.0747 20.0614 10.1323C19.8607 10.2181 19.6489 10.2378 19.4351 10.2565C19.1764 10.2786 18.9167 10.2856 18.6593 10.3255C18.6298 10.3306 18.5796 10.3184 18.5909 10.3761C18.5989 10.4206 18.574 10.4825 18.6607 10.489C18.9157 10.5069 19.1637 10.5678 19.4145 10.6175C19.7506 10.6836 20.0857 10.7525 20.4401 10.6859C20.3862 10.8083 20.2887 10.8594 20.1781 10.8903C19.9489 10.9526 19.7164 10.9245 19.4843 10.9105C19.2115 10.8945 18.9382 10.8664 18.665 10.8772C18.6307 10.879 18.5914 10.8711 18.5979 10.9264C18.6036 10.9709 18.5576 11.0267 18.649 11.0464C18.9279 11.1078 19.1914 11.2194 19.4586 11.3169C19.7426 11.4205 20.0309 11.5039 20.3375 11.4969C20.344 11.4969 20.3496 11.5001 20.3646 11.5053C20.271 11.5966 20.1486 11.6526 20.0182 11.6637C19.7384 11.6984 19.4698 11.6323 19.1998 11.5756C19.0006 11.5325 18.8 11.4894 18.6003 11.4486C18.5717 11.4434 18.529 11.4176 18.5168 11.4748C18.5084 11.5198 18.4831 11.5592 18.5539 11.5897C18.8253 11.7045 19.0751 11.8601 19.3325 12.004C19.5181 12.1086 19.7051 12.2117 19.91 12.2769C19.9934 12.3036 20.0787 12.3181 20.1743 12.3308C20.1118 12.3844 20.0338 12.4169 19.9517 12.4236C19.7557 12.4489 19.5734 12.3955 19.3925 12.3322C19.1107 12.2347 18.8398 12.1067 18.5548 12.0176C18.5065 12.0022 18.4564 11.9928 18.409 11.9755C18.3729 11.9619 18.3528 11.9755 18.3514 12.0078C18.3495 12.0458 18.2782 12.0847 18.3378 12.1189C18.7329 12.3481 19.07 12.6589 19.4431 12.919C19.5664 13.0053 19.6962 13.078 19.8565 13.1033C19.7379 13.1825 19.6184 13.1736 19.4975 13.1464C19.242 13.0892 19.024 12.9448 18.8032 12.8173C18.5993 12.702 18.4029 12.574 18.1896 12.4756C18.1489 12.4573 18.1226 12.4517 18.1043 12.4995C18.0903 12.538 18.0354 12.5637 18.102 12.6158C18.3809 12.8305 18.5993 13.1061 18.8361 13.3625C18.9743 13.5106 19.1103 13.6625 19.2954 13.7539C19.3325 13.7726 19.3709 13.7867 19.4084 13.804C19.3409 13.8561 19.1501 13.8308 19.0278 13.7811C18.8839 13.719 18.7495 13.6368 18.6289 13.5369C18.3978 13.3583 18.1864 13.1558 17.9496 12.9837C17.9356 12.9734 17.9206 12.9612 17.9051 12.9509C17.8245 12.8965 17.7814 12.9097 17.7382 12.9997C17.727 13.0222 17.7411 13.0287 17.7509 13.039C17.9876 13.2758 18.1531 13.564 18.3331 13.8415C18.455 14.0295 18.5881 14.2086 18.769 14.3445C18.8079 14.3726 18.8482 14.398 18.8961 14.4312C18.7507 14.4659 18.6293 14.4284 18.5131 14.3633C18.3814 14.2892 18.2736 14.1851 18.1704 14.0759C17.9618 13.8533 17.7767 13.6081 17.5582 13.3934C17.5468 13.3823 17.5355 13.3708 17.5245 13.3592C17.4509 13.2912 17.4171 13.2959 17.3567 13.3765C17.3421 13.3939 17.3496 13.4047 17.3595 13.4173C17.5981 13.7431 17.734 14.1223 17.9084 14.4809C17.9989 14.6675 18.0926 14.8517 18.2576 14.99C18.1882 15.0083 18.0936 14.9858 18.0106 14.937C17.8836 14.8653 17.787 14.7608 17.7007 14.6459C17.5784 14.4847 17.4767 14.3098 17.3703 14.1378C17.2746 13.9807 17.1714 13.8283 17.0609 13.6812C17.0154 13.6222 16.9868 13.6536 16.9432 13.6761C16.8893 13.7028 16.9076 13.7314 16.9259 13.7684C17.0496 14.022 17.1054 14.2976 17.1762 14.5686C17.232 14.779 17.2826 14.9923 17.3825 15.1883C17.4228 15.2684 17.4729 15.342 17.5292 15.4151C17.4432 15.4037 17.3625 15.3668 17.2976 15.3092C17.1504 15.1859 17.0604 15.0242 16.9817 14.8536C16.8636 14.5972 16.7717 14.329 16.6357 14.0806C16.6128 14.038 16.5837 13.9995 16.5626 13.9555C16.5387 13.9067 16.5139 13.902 16.4618 13.9236C16.4061 13.9475 16.3925 13.9662 16.4131 14.0262C16.5139 14.3075 16.5359 14.6042 16.5701 14.8986C16.5992 15.1475 16.6165 15.3978 16.7187 15.6317C16.7356 15.672 16.7562 15.7105 16.7801 15.7597C16.692 15.7287 16.6136 15.675 16.5528 15.604C16.422 15.4648 16.3578 15.29 16.3081 15.1095C16.2303 14.8358 16.1815 14.5526 16.0864 14.2845C16.0657 14.2278 16.0395 14.1744 16.0189 14.1186C15.9968 14.0595 15.957 14.0989 15.9265 14.1036C15.8993 14.1078 15.8567 14.1017 15.8637 14.1547C15.9125 14.4936 15.8736 14.8339 15.8684 15.1737C15.8651 15.4376 15.8782 15.6978 15.979 15.9505C15.8703 15.9115 15.7718 15.8023 15.7118 15.6645C15.6317 15.4784 15.6092 15.2801 15.5886 15.0805C15.5614 14.8137 15.5553 14.5433 15.5065 14.278C15.4882 14.1767 15.4896 14.1786 15.3917 14.1884C15.3593 14.1908 15.3486 14.2011 15.3486 14.2339C15.3504 14.5381 15.3012 14.8386 15.2604 15.139C15.2201 15.4297 15.1892 15.7217 15.2571 16.033C15.1043 15.86 15.0079 15.6444 14.9811 15.4151C14.9529 15.1897 14.9881 14.9656 15.0031 14.7411C15.0134 14.578 15.0242 14.4153 14.9993 14.2526C14.9928 14.2123 14.9792 14.1997 14.9393 14.1978C14.8062 14.1889 14.8076 14.188 14.7851 14.3211C14.7392 14.6023 14.6361 14.8653 14.5475 15.1339C14.4748 15.3547 14.4064 15.5759 14.404 15.8122C14.4036 15.8642 14.4087 15.9176 14.4115 15.9823C14.3409 15.9028 14.2908 15.8072 14.2657 15.7039C14.2104 15.4972 14.2348 15.289 14.2704 15.0823C14.3154 14.8128 14.3871 14.5475 14.4026 14.2728L14.405 14.2315C14.4068 14.1289 14.3923 14.1134 14.2915 14.1069C14.2695 14.1055 14.2573 14.1106 14.2512 14.1331C14.1556 14.5508 13.9287 14.9126 13.7576 15.297C13.6859 15.4601 13.6221 15.6228 13.6203 15.8056C13.5411 15.6805 13.5139 15.5417 13.5139 15.3969C13.5139 15.148 13.6011 14.9183 13.6779 14.6881C13.7482 14.4786 13.8289 14.2742 13.8701 14.0558C13.8729 14.0412 13.8723 14.0262 13.8683 14.012C13.8644 13.9977 13.8572 13.9845 13.8474 13.9734C13.8376 13.9623 13.8254 13.9536 13.8117 13.948C13.798 13.9424 13.7832 13.9399 13.7684 13.9409C13.7506 13.9419 13.7445 13.9536 13.7389 13.9658C13.5889 14.314 13.3334 14.5948 13.1281 14.908C13.0067 15.0936 12.9026 15.2862 12.8478 15.5173C12.7995 15.4123 12.7967 15.3111 12.7981 15.2103C12.8 15.0036 12.8684 14.8142 12.957 14.6305C13.0751 14.3858 13.2214 14.157 13.3306 13.9076C13.3343 13.8978 13.34 13.887 13.3437 13.8758C13.3981 13.73 13.4046 13.775 13.2748 13.6925C13.2537 13.6784 13.2396 13.6812 13.2246 13.7023C12.9996 14.0187 12.702 14.27 12.4531 14.5662C12.3149 14.7275 12.2036 14.91 12.1236 15.1067C12.087 15.0336 12.079 14.8887 12.1006 14.7715C12.1339 14.5883 12.2196 14.4294 12.3275 14.2826C12.4667 14.0965 12.6125 13.9151 12.7536 13.7309C12.8112 13.6555 12.86 13.5748 12.9059 13.4933C12.9495 13.4164 12.8646 13.4173 12.8398 13.3826C12.814 13.3461 12.7981 13.3845 12.784 13.4C12.6153 13.5903 12.41 13.7389 12.2056 13.8875C12.0059 14.0323 11.8025 14.1706 11.6346 14.3534C11.5699 14.4274 11.5129 14.5079 11.4645 14.5934C11.4387 14.4265 11.4762 14.2864 11.5451 14.1519C11.6168 14.0108 11.7186 13.8926 11.8292 13.7811C12.0317 13.5744 12.259 13.392 12.4484 13.1708L12.4662 13.1501C12.5187 13.0878 12.5037 13.0151 12.432 12.9753C12.4142 12.9659 12.4062 12.9772 12.3973 12.9851C12.1414 13.2017 11.8357 13.3334 11.5423 13.4862C11.3464 13.588 11.1542 13.6967 11.0051 13.8664C10.9742 13.9011 10.9456 13.94 10.909 13.9864C10.8962 13.893 10.9108 13.7978 10.9512 13.7126C11.0332 13.5242 11.1795 13.392 11.3431 13.2776C11.5409 13.1403 11.7429 13.0067 11.9407 12.8698C12.0204 12.8155 12.0954 12.7536 12.1606 12.6819C12.2103 12.6261 12.1357 12.6003 12.1245 12.5595C12.1156 12.5305 12.0954 12.5319 12.0701 12.5464C11.8086 12.6964 11.5179 12.7723 11.2353 12.867C11.0004 12.9458 10.7665 13.024 10.5636 13.1773C10.5232 13.2083 10.4867 13.2425 10.4384 13.2828C10.4428 13.2081 10.4653 13.1355 10.504 13.0714C10.5903 12.9214 10.7206 12.8159 10.8654 12.7287C11.0661 12.6064 11.2807 12.5112 11.4926 12.4105C11.6206 12.3486 11.7453 12.282 11.8681 12.208C11.9511 12.1587 11.8765 12.1156 11.8667 12.0706C11.8564 12.0158 11.8189 12.0448 11.7926 12.0542C11.5268 12.1498 11.2479 12.1822 10.9718 12.2314C10.7136 12.2778 10.4543 12.3181 10.2176 12.439C10.1759 12.4606 10.1346 12.4864 10.0775 12.5178C10.1248 12.4105 10.1853 12.334 10.2598 12.2665C10.4201 12.1217 10.6123 12.0364 10.8134 11.968C11.0914 11.8719 11.3796 11.8086 11.6562 11.7092C11.7134 11.6886 11.7284 11.6689 11.7129 11.6065C11.6937 11.5367 11.6726 11.5151 11.5943 11.524C11.2962 11.5611 10.9976 11.5494 10.6981 11.5564C10.4984 11.563 10.2982 11.569 10.1023 11.6206C10.0339 11.6398 9.9673 11.6628 9.90168 11.6937C9.88855 11.6965 9.8834 11.6909 9.88668 11.6773C10.0671 11.4411 10.3231 11.3436 10.6029 11.2906C10.8528 11.2423 11.1092 11.2339 11.3618 11.1955C11.4312 11.1847 11.5011 11.1673 11.5718 11.1565C11.6065 11.1514 11.6154 11.1359 11.6131 11.1017C11.6056 10.9765 11.6065 10.9775 11.4856 10.9723C11.2422 10.9584 10.9998 10.9309 10.7595 10.8898C10.4328 10.8383 10.1051 10.782 9.75684 10.8725C9.8548 10.7483 9.96918 10.6836 10.0995 10.6433C10.3348 10.5706 10.5771 10.5865 10.8176 10.595C11.0548 10.603 11.2911 10.6114 11.5282 10.5898C11.6239 10.5814 11.5831 10.5134 11.5967 10.4689C11.6131 10.415 11.5718 10.415 11.5386 10.4108C11.2282 10.3634 10.9329 10.2584 10.6348 10.1661C10.3709 10.085 10.1037 10.0184 9.82105 10.0423C9.86465 9.99452 9.97574 9.94389 10.0986 9.90686C10.3315 9.83842 10.5659 9.85202 10.8017 9.88811C11.0614 9.92842 11.3164 9.9917 11.5789 10.0048C11.5941 10.0062 11.6094 10.0039 11.6236 9.99822C11.6377 9.99251 11.6504 9.98352 11.6604 9.97199C11.6704 9.96046 11.6775 9.94672 11.6812 9.93189C11.6849 9.91707 11.685 9.90158 11.6815 9.8867C11.6773 9.86374 11.6595 9.86561 11.6454 9.86233C11.4031 9.80467 11.1856 9.69217 10.9732 9.56702C10.684 9.39545 10.3775 9.28248 10.0409 9.25577C10.0207 9.25389 10.0015 9.24967 9.96918 9.24499C10.1774 9.15251 10.4068 9.11816 10.6329 9.14561C10.8753 9.1742 11.0984 9.26889 11.3243 9.35186C11.4617 9.40295 11.6014 9.44936 11.7457 9.47749C11.7865 9.48545 11.8118 9.4817 11.8221 9.43717C11.8282 9.41514 11.8369 9.39389 11.8479 9.37389C11.8592 9.34811 11.8559 9.33405 11.8273 9.32186C11.5165 9.19577 11.2592 8.98577 10.9943 8.78795C10.7881 8.63374 10.5678 8.50811 10.3114 8.45842C10.3025 8.45702 10.2926 8.45514 10.2912 8.44061C10.6521 8.3867 10.9976 8.4167 11.3192 8.60749C11.5287 8.7317 11.7321 8.8667 11.9656 8.94358C11.9989 8.95483 12.035 8.98436 12.0668 8.93092C12.1151 8.84889 12.117 8.85077 12.0354 8.80014C11.8385 8.67581 11.6634 8.51999 11.517 8.33889C11.2967 8.07405 11.0365 7.86545 10.7121 7.7417C10.7042 7.73936 10.6986 7.73233 10.6831 7.72108C11.06 7.70936 11.3825 7.81858 11.6661 8.05249C11.8559 8.20811 12.0406 8.37217 12.2651 8.48092C12.2923 8.49452 12.3228 8.52874 12.3504 8.50811C12.3861 8.48139 12.4128 8.44061 12.439 8.40405C12.4526 8.38577 12.4315 8.37452 12.4203 8.36561C12.1859 8.16358 12.0134 7.91045 11.8367 7.66061C11.674 7.43045 11.4804 7.23405 11.2334 7.09342C11.2259 7.0892 11.2198 7.08311 11.2114 7.07702C11.2873 7.06155 11.405 7.07936 11.5189 7.11733C11.7054 7.18061 11.862 7.29124 12.0026 7.42717C12.1882 7.60577 12.3509 7.8078 12.5445 7.97702C12.589 8.01639 12.6373 8.05342 12.6842 8.08999C12.7512 8.14155 12.7657 8.05858 12.8042 8.03983C12.8473 8.0192 12.8136 7.99577 12.7976 7.97655C12.6326 7.78108 12.5211 7.55467 12.4142 7.32545C12.2956 7.06952 12.1611 6.82483 11.9553 6.62514C11.915 6.58483 11.8718 6.54733 11.8264 6.50374C11.8836 6.49577 11.93 6.52014 11.9768 6.53702C12.2112 6.62374 12.3931 6.77655 12.5403 6.97436C12.6912 7.17545 12.8182 7.39202 12.9828 7.58139C13.0296 7.6353 13.0793 7.68686 13.129 7.73749C13.1904 7.79983 13.2195 7.71967 13.2626 7.70327C13.3071 7.68686 13.2725 7.65873 13.2607 7.63811C13.1075 7.37514 13.0296 7.08358 12.9382 6.79717C12.852 6.52952 12.7296 6.28295 12.5361 6.07483C12.5356 6.05139 12.5482 6.05233 12.5656 6.05983" fill="#FEFE00"/>
<path fill-rule="evenodd" clip-rule="evenodd" d="M18.1536 10.7056C18.1524 11.5145 17.8302 12.2899 17.2576 12.8613C16.6851 13.4327 15.909 13.7534 15.1001 13.753C14.6996 13.7528 14.303 13.6736 13.9331 13.5201C13.5632 13.3666 13.2272 13.1416 12.9442 12.8581C12.6613 12.5746 12.437 12.2381 12.2842 11.8679C12.1314 11.4977 12.0531 11.101 12.0537 10.7005C12.055 9.89259 12.3766 9.11821 12.948 8.54719C13.5195 7.97617 14.2941 7.65513 15.102 7.65451C16.782 7.6517 18.155 9.02561 18.1536 10.7056Z" fill="#EC1C24"/>
<path fill-rule="evenodd" clip-rule="evenodd" d="M17.0863 9.00358C16.9311 9.00405 16.7872 9.0017 16.6433 9.01436C16.1238 9.05496 15.6208 9.21541 15.1737 9.48311C15.1236 9.51405 15.0889 9.51405 15.0402 9.47702C14.7575 9.26749 14.4336 9.15592 14.0933 9.08608C13.8657 9.04004 13.6348 9.01245 13.4028 9.00358C13.3208 8.99983 13.2388 9.00264 13.1445 9.00264C14.0192 7.90342 15.9617 7.69717 17.0867 9.00358" fill="#FEFE00"/>
<path fill-rule="evenodd" clip-rule="evenodd" d="M14.3167 10.0264C13.9705 10.3363 13.6868 10.7095 13.4809 11.1261C13.2742 11.5437 13.158 11.9834 13.1739 12.4648C13.085 12.3798 13.0071 12.2841 12.9419 12.1798C12.558 11.5981 12.4197 10.9625 12.5298 10.2739C12.5575 10.1028 12.6034 9.9378 12.6653 9.77608C12.6761 9.74655 12.6855 9.72452 12.7258 9.72452C13.2705 9.72452 13.8034 9.78452 14.3059 10.0147C14.3073 10.0151 14.3078 10.018 14.3167 10.0264Z" fill="#FEFE00"/>
<path fill-rule="evenodd" clip-rule="evenodd" d="M17.0853 12.4062C17.0665 11.4139 16.6357 10.632 15.8623 10.0137C15.9411 9.98373 16.0109 9.95373 16.0831 9.92889C16.5031 9.78217 16.9329 9.6992 17.3801 9.70857C17.5297 9.71185 17.5315 9.70998 17.5812 9.85154C17.7256 10.2631 17.7612 10.685 17.6947 11.1158C17.624 11.5725 17.4331 12.0022 17.1415 12.3608C17.1284 12.3772 17.1186 12.3992 17.0853 12.4062Z" fill="#FEFE00"/>
<path fill-rule="evenodd" clip-rule="evenodd" d="M15.1165 10.7005C15.2562 10.8955 15.357 11.1017 15.4339 11.3178C15.6214 11.8466 15.6809 12.3898 15.6148 12.9472C15.6031 13.047 15.5787 13.1455 15.5628 13.2458C15.5576 13.2823 15.5389 13.2922 15.5047 13.2978C15.2712 13.3353 15.0378 13.3316 14.8034 13.3114C14.7298 13.3048 14.7022 13.2777 14.6867 13.2027C14.5728 12.6266 14.5869 12.0566 14.7486 11.4922C14.8266 11.2098 14.951 10.9422 15.1165 10.7005Z" fill="#FEFE00"/>
<path fill-rule="evenodd" clip-rule="evenodd" d="M15.6133 10.2491C15.8144 10.3967 15.9817 10.5758 16.1289 10.7736C16.4352 11.1805 16.6404 11.6545 16.7275 12.1564C16.7603 12.3378 16.7697 12.5206 16.7641 12.7058C16.7627 12.7241 16.7641 12.7428 16.7462 12.7545C16.6642 12.8126 16.5892 12.8816 16.4847 12.9345C16.5658 11.9126 16.1716 11.0548 15.6133 10.2491Z" fill="#FEFE00"/>
<path fill-rule="evenodd" clip-rule="evenodd" d="M13.7504 12.9406C13.6571 12.8984 13.5859 12.8351 13.5099 12.7812C13.4902 12.7672 13.4893 12.7475 13.4893 12.7259C13.4696 11.8423 13.7326 11.0666 14.3687 10.4342C14.4367 10.3662 14.5098 10.3053 14.612 10.2453C14.0068 11.0534 13.6942 11.9342 13.7504 12.9406Z" fill="#FEFE00"/>
<path fill-rule="evenodd" clip-rule="evenodd" d="M14.8952 10.4937C14.365 11.3337 14.2361 12.2455 14.343 13.2177C14.2679 13.1891 14.1926 13.1611 14.117 13.1337C14.0866 13.1225 14.0964 13.0958 14.095 13.0756C14.0674 12.7152 14.0875 12.3526 14.155 11.9975C14.2277 11.5995 14.3467 11.2175 14.5558 10.8683C14.6264 10.7468 14.7149 10.6367 14.8183 10.5416C14.8413 10.5223 14.8619 10.5022 14.8952 10.4937Z" fill="#FEFE00"/>
<path fill-rule="evenodd" clip-rule="evenodd" d="M15.9309 13.1956C16.087 12.2197 15.8644 11.3356 15.3633 10.5111C15.3853 10.4998 15.3942 10.5265 15.4059 10.5383C15.6516 10.789 15.825 11.0843 15.9478 11.4092C16.1503 11.9412 16.2033 12.4925 16.1527 13.0559C16.1484 13.1004 16.1348 13.1276 16.0894 13.1408C16.0392 13.1543 15.99 13.1745 15.9309 13.1956Z" fill="#FEFE00"/>
</svg>
