<svg width="32" height="26" viewBox="0 0 32 26" fill="none" xmlns="http://www.w3.org/2000/svg">
<path d="M6.92802 9.98905C6.93402 9.33305 6.92802 8.68305 6.92802 8.02805V6.06705C6.92802 5.99505 6.95002 5.95605 7.00602 5.91705C7.64502 5.47305 8.34502 5.24505 9.12802 5.30005C9.82202 5.35005 10.389 5.68905 10.689 6.50605C10.872 7.00005 10.917 7.51705 10.917 8.04505C10.917 8.52805 10.878 9.00605 10.728 9.46705C10.411 10.4561 9.68902 10.8391 8.74502 10.7951C8.09502 10.7671 7.52802 10.5171 7.00102 10.1451C6.95102 10.1011 6.92302 10.0561 6.92902 9.98905H6.92802ZM15.533 10.8001C15.788 10.9001 16.049 10.9111 16.316 10.8831C16.961 10.8161 17.533 10.5661 18.055 10.1891C18.105 10.1561 18.127 10.1171 18.127 10.0501C18.121 9.83305 18.127 9.61105 18.127 9.39505C18.127 9.17305 18.121 8.95105 18.127 8.72805C18.127 8.65005 18.105 8.61705 18.027 8.60605C17.638 8.55605 17.255 8.48405 16.866 8.44505C16.477 8.41205 16.088 8.42805 15.71 8.55005C15.338 8.67205 15.06 8.89505 14.949 9.27805C14.86 9.57805 14.86 9.87805 14.954 10.1781C14.9928 10.3208 15.0656 10.452 15.1663 10.5603C15.267 10.6687 15.3925 10.7509 15.532 10.8001H15.533ZM32 3.22205V22.7781C31.9998 23.4853 31.7187 24.1635 31.2186 24.6636C30.7185 25.1637 30.0403 25.4448 29.333 25.4451H2.66602C1.95877 25.4448 1.28056 25.1637 0.780462 24.6636C0.28036 24.1635 -0.000711526 23.4853 -0.000976562 22.7781V3.22205C-0.000711526 2.5148 0.28036 1.83659 0.780462 1.33649C1.28056 0.836391 1.95877 0.555319 2.66602 0.555054H29.333C30.0403 0.555319 30.7185 0.836391 31.2186 1.33649C31.7187 1.83659 31.9998 2.5148 32 3.22205ZM20.472 4.55005C20.494 4.64505 20.522 4.73905 20.561 4.83305C21.478 7.08905 22.389 9.35005 23.311 11.6051C23.389 11.7991 23.405 11.9611 23.322 12.1551C23.166 12.4991 23.05 12.8551 22.889 13.1941C22.744 13.5001 22.517 13.7221 22.183 13.8161C21.9488 13.8743 21.7061 13.8912 21.466 13.8661C21.349 13.8551 21.233 13.8271 21.116 13.8221C20.96 13.8111 20.883 13.8831 20.877 14.0441C20.871 14.1977 20.871 14.3514 20.877 14.5051C20.882 14.7601 20.966 14.8771 21.221 14.9221C21.482 14.9661 21.743 15.0111 22.01 15.0161C22.804 15.0331 23.438 14.7161 23.849 14.0211C24.01 13.7491 24.16 13.4601 24.277 13.1661C25.377 10.3831 26.471 7.59405 27.566 4.80505C27.599 4.72205 27.627 4.63805 27.638 4.54905C27.66 4.41605 27.599 4.34905 27.466 4.34405C27.155 4.33905 26.849 4.34405 26.538 4.34405C26.366 4.34405 26.244 4.42205 26.183 4.58305C26.161 4.64405 26.133 4.71105 26.111 4.77205L24.494 9.42205C24.377 9.76105 24.261 10.0941 24.133 10.4551L24.089 10.3501L22.289 5.36105C22.1937 5.09708 22.0957 4.83407 21.995 4.57205C21.945 4.43305 21.845 4.35005 21.695 4.35005C21.3394 4.34255 20.9837 4.34055 20.628 4.34405C20.506 4.34405 20.445 4.43305 20.472 4.54905V4.55005ZM13.467 10.2221C13.562 10.8721 13.889 11.3781 14.467 11.7001C15.017 12.0061 15.617 12.0441 16.228 11.9551C16.934 11.8501 17.556 11.5491 18.106 11.0941C18.128 11.0771 18.15 11.0611 18.184 11.0381C18.212 11.2161 18.234 11.3821 18.267 11.5491C18.295 11.6941 18.384 11.7881 18.517 11.7941C18.772 11.7991 19.022 11.7991 19.278 11.7941C19.406 11.7881 19.489 11.7051 19.5 11.5771C19.506 11.5331 19.506 11.4881 19.506 11.4491V6.51605C19.506 6.31605 19.495 6.11605 19.467 5.91605C19.378 5.31605 19.123 4.82205 18.584 4.50505C18.2719 4.33015 17.9283 4.21868 17.573 4.17705C17.406 4.15505 17.24 4.13805 17.067 4.11605H16.511C16.467 4.12105 16.422 4.13205 16.372 4.13205C15.9184 4.14923 15.4679 4.21425 15.028 4.32605C14.745 4.39805 14.472 4.50405 14.195 4.59805C14.028 4.65405 13.945 4.77605 13.951 4.95905C13.956 5.11505 13.945 5.27005 13.951 5.42005C13.956 5.64805 14.051 5.70905 14.268 5.64805C14.629 5.55405 14.996 5.45405 15.362 5.38105C15.934 5.27605 16.512 5.23105 17.09 5.31405C17.39 5.35805 17.673 5.44705 17.873 5.70305C18.045 5.92505 18.106 6.19205 18.118 6.46405C18.135 6.84705 18.129 7.23605 18.135 7.62005C18.135 7.64205 18.13 7.65905 18.124 7.68705C18.102 7.68705 18.08 7.68705 18.063 7.68205C17.5746 7.56145 17.0762 7.48515 16.574 7.45405C16.046 7.42605 15.524 7.46005 15.024 7.63205C14.424 7.84305 13.941 8.20405 13.657 8.78805C13.429 9.24905 13.401 9.73205 13.468 10.2211L13.467 10.2221ZM5.48302 4.71705V14.4561C5.48302 14.5001 5.48302 14.5501 5.48902 14.5951C5.50002 14.7341 5.58302 14.8231 5.71702 14.8281C6.04502 14.8341 6.37302 14.8341 6.70102 14.8281C6.84002 14.8281 6.92302 14.7341 6.92902 14.6001C6.93502 14.5561 6.93502 14.5061 6.93502 14.4611V11.0891C6.98502 11.1281 7.01302 11.1561 7.04002 11.1781C7.87302 11.8721 8.82902 12.1001 9.87902 11.8951C10.829 11.7061 11.484 11.1231 11.918 10.2731C12.24 9.62905 12.379 8.93405 12.401 8.21705C12.429 7.42305 12.345 6.63905 12.023 5.90005C11.629 4.98905 10.973 4.38305 9.98402 4.18305C9.83402 4.15005 9.67802 4.13805 9.52802 4.11605H9.13902C9.07202 4.12705 9.00602 4.13205 8.93902 4.14405C8.2993 4.22241 7.69083 4.46531 7.17302 4.84905C7.06202 4.92705 6.95602 5.01605 6.84502 5.09905C6.84002 5.07105 6.82802 5.05505 6.82302 5.03205C6.80102 4.90405 6.78402 4.77605 6.76202 4.64905C6.72902 4.43205 6.62302 4.34305 6.40702 4.33805H5.86802C5.54002 4.33205 5.48502 4.39405 5.48502 4.71605L5.48302 4.71705ZM27.422 17.6111C27.272 17.5721 27.139 17.6111 27 17.6671C23.8187 18.9986 20.4193 19.7332 16.972 19.8341C15.494 19.8715 14.0154 19.7916 12.55 19.5951C11.56 19.4617 10.5774 19.2781 9.60602 19.0451C7.55376 18.5565 5.56463 17.8331 3.67802 16.8891C3.18902 16.6451 2.71102 16.3721 2.22802 16.1111C2.01702 15.9941 1.88302 16.0281 1.77202 16.2281V16.3221C1.83902 16.4111 1.89402 16.5111 1.97802 16.5891C3.97802 18.3781 6.23302 19.7281 8.75602 20.6391C9.97302 21.0781 11.223 21.4001 12.495 21.6111C13.273 21.7391 14.051 21.8221 14.84 21.8611C15.007 21.8671 15.173 21.8721 15.34 21.8831C15.379 21.8831 15.418 21.8941 15.457 21.9001H16.44C16.479 21.8951 16.518 21.8831 16.557 21.8831C17.385 21.8611 18.213 21.7831 19.035 21.6611C20.22 21.4843 21.3885 21.2111 22.529 20.8441C24.174 20.3111 25.735 19.6001 27.162 18.6161C27.318 18.5101 27.479 18.4051 27.606 18.2711C27.845 18.0271 27.734 17.6931 27.423 17.6101L27.422 17.6111ZM30.222 16.0721C30.178 15.8391 30 15.7501 29.8 15.6831C29.4827 15.5826 29.1542 15.5211 28.822 15.5001C28.2134 15.449 27.6007 15.4789 27 15.5891C26.333 15.7111 25.7 15.9281 25.139 16.3171C25.0699 16.3591 25.0111 16.4162 24.967 16.4841C24.9357 16.5418 24.9257 16.6087 24.939 16.6731C24.956 16.7451 25.034 16.7621 25.106 16.7561C25.139 16.7561 25.173 16.7561 25.206 16.7501L26.289 16.6331C26.822 16.5831 27.356 16.5501 27.889 16.5891C28.117 16.6061 28.339 16.6561 28.556 16.7111C28.795 16.7721 28.9 16.9551 28.911 17.1941C28.928 17.5661 28.844 17.9221 28.75 18.2771C28.556 18.9941 28.289 19.6881 28.011 20.3771C27.994 20.4211 27.972 20.4711 27.967 20.5161C27.945 20.6551 28.023 20.7381 28.156 20.7101C28.2392 20.6918 28.3159 20.6513 28.378 20.5931C28.584 20.3931 28.795 20.1931 28.967 19.9711C29.562 19.2041 29.911 18.3261 30.117 17.3821C30.156 17.2151 30.184 17.0431 30.211 16.8771C30.222 16.6161 30.222 16.3441 30.222 16.0711V16.0721Z" fill="black" fill-opacity="0.6"/>
</svg>
