<svg width="20" height="20" viewBox="0 0 20 20" fill="none" xmlns="http://www.w3.org/2000/svg">
<path d="M18.5556 15.6417L18.3667 15.475C17.8308 14.9976 17.3618 14.45 16.9722 13.8472C16.5468 13.0153 16.2918 12.1068 16.2222 11.175V8.43056C16.2259 6.96701 15.695 5.55249 14.7293 4.45276C13.7636 3.35304 12.4295 2.64381 10.9778 2.45833V1.74167C10.9778 1.54496 10.8996 1.35632 10.7605 1.21723C10.6215 1.07814 10.4328 1 10.2361 1C10.0394 1 9.85076 1.07814 9.71167 1.21723C9.57258 1.35632 9.49444 1.54496 9.49444 1.74167V2.46944C8.0557 2.66829 6.73776 3.38181 5.78474 4.47784C4.83171 5.57387 4.30818 6.97814 4.31111 8.43056V11.175C4.24153 12.1068 3.98654 13.0153 3.56111 13.8472C3.17827 14.4485 2.71677 14.996 2.18889 15.475L2 15.6417V17.2083H18.5556V15.6417Z" fill="#424242"/>
<path d="M8.81641 17.7969C8.86512 18.149 9.03962 18.4717 9.30768 18.7052C9.57573 18.9387 9.91923 19.0674 10.2747 19.0674C10.6302 19.0674 10.9737 18.9387 11.2418 18.7052C11.5099 18.4717 11.6844 18.149 11.7331 17.7969H8.81641Z" fill="#424242"/>
</svg>
