<svg width="21" height="21" viewBox="0 0 21 21" fill="none" xmlns="http://www.w3.org/2000/svg">
<path d="M15.2332 20.6664H15.2612C15.7893 20.6664 16.2883 20.4584 16.6663 20.0804L19.3784 17.3683C19.4713 17.2755 19.5451 17.1653 19.5954 17.044C19.6457 16.9227 19.6716 16.7926 19.6716 16.6613C19.6716 16.5299 19.6457 16.3999 19.5954 16.2786C19.5451 16.1573 19.4713 16.047 19.3784 15.9543L15.3782 11.9541C15.2854 11.8611 15.1752 11.7874 15.0539 11.7371C14.9326 11.6868 14.8025 11.6609 14.6712 11.6609C14.5399 11.6609 14.4098 11.6868 14.2885 11.7371C14.1672 11.7874 14.057 11.8611 13.9642 11.9541L12.3701 13.5482C11.6311 13.3282 10.252 12.8281 9.378 11.9541C8.50397 11.0801 8.00395 9.70101 7.78394 8.96198L9.378 7.36792C9.47095 7.27513 9.54469 7.16492 9.595 7.0436C9.64531 6.92228 9.67121 6.79223 9.67121 6.66089C9.67121 6.52955 9.64531 6.3995 9.595 6.27818C9.54469 6.15686 9.47095 6.04665 9.378 5.95386L5.37784 1.95371C5.18666 1.77325 4.93371 1.67273 4.67082 1.67273C4.40792 1.67273 4.15497 1.77325 3.96379 1.95371L1.25268 4.66581C0.872667 5.04583 0.658659 5.56785 0.666659 6.10087C0.68966 7.52492 1.06667 12.4711 4.96483 16.3693C8.86298 20.2674 13.8092 20.6434 15.2332 20.6664V20.6664ZM4.67182 4.07479L7.25792 6.66089L5.96487 7.95394C5.8472 8.07129 5.76076 8.21621 5.71342 8.37551C5.66609 8.53481 5.65936 8.70342 5.69386 8.86598C5.71786 8.98098 6.30488 11.7081 7.96495 13.3682C9.62501 15.0282 12.3521 15.6152 12.4671 15.6392C12.6297 15.6739 12.7983 15.6673 12.9577 15.6199C13.117 15.5726 13.2619 15.4861 13.3792 15.3682L14.6722 14.0752L17.2583 16.6613L15.2522 18.6664C14.0042 18.6454 9.73401 18.3103 6.37888 14.9542C3.01275 11.5881 2.68674 7.30292 2.66674 6.07987L4.67182 4.07479ZM18.6664 9.66601H20.6664C20.6664 4.53581 16.7933 0.666656 11.6561 0.666656V2.66673C15.7182 2.66673 18.6664 5.60985 18.6664 9.66601V9.66601Z" fill="#142A65"/>
<path d="M11.6671 6.66692C13.7702 6.66692 14.6672 7.56395 14.6672 9.66703H16.6673C16.6673 6.44191 14.8922 4.66684 11.6671 4.66684V6.66692V6.66692Z" fill="#142A65"/>
</svg>
