<svg width="26" height="26" viewBox="0 0 26 26" fill="none" xmlns="http://www.w3.org/2000/svg">
<path d="M13 0.8125C6.28003 0.8125 0.8125 6.28003 0.8125 13C0.8125 19.72 6.28003 25.1875 13 25.1875C19.72 25.1875 25.1875 19.72 25.1875 13C25.1875 6.28003 19.72 0.8125 13 0.8125ZM13 2.6875C18.7056 2.6875 23.3125 7.29443 23.3125 13C23.3125 18.7056 18.7056 23.3125 13 23.3125C7.29443 23.3125 2.6875 18.7056 2.6875 13C2.6875 7.29443 7.29443 2.6875 13 2.6875ZM9.45508 8.10742L8.10742 9.45508L11.6523 13L8.10742 16.5449L9.45508 17.8926L13 14.3477L16.5449 17.8926L17.8926 16.5449L14.3477 13L17.8926 9.45508L16.5449 8.10742L13 11.6523L9.45508 8.10742Z" fill="#494949"/>
</svg>
