<svg width="28" height="22" viewBox="0 0 28 22" fill="none" xmlns="http://www.w3.org/2000/svg">
<path d="M2.75 10H14V11.875H2.75V10Z" fill="white"/>
<path d="M0.875 5.3125H10.25V7.1875H0.875V5.3125Z" fill="white"/>
<path d="M27.0491 10.5681L24.2366 4.00563C24.1644 3.83695 24.0443 3.69319 23.8911 3.59219C23.7379 3.49119 23.5585 3.4374 23.375 3.4375H20.5625V1.5625C20.5625 1.31386 20.4637 1.0754 20.2879 0.899588C20.1121 0.723772 19.8736 0.625 19.625 0.625H4.62501V2.5H18.6875V14.2712C18.2603 14.5193 17.8865 14.8495 17.5875 15.2427C17.2885 15.636 17.0704 16.0845 16.9456 16.5625H11.0544C10.8262 15.6788 10.2835 14.9086 9.52813 14.3963C8.77271 13.884 7.8564 13.6649 6.95095 13.7799C6.0455 13.8949 5.21307 14.3362 4.60971 15.021C4.00634 15.7059 3.67346 16.5873 3.67346 17.5C3.67346 18.4127 4.00634 19.2941 4.60971 19.979C5.21307 20.6638 6.0455 21.1051 6.95095 21.2201C7.8564 21.3351 8.77271 21.116 9.52813 20.6037C10.2835 20.0914 10.8262 19.3212 11.0544 18.4375H16.9456C17.1496 19.2421 17.616 19.9557 18.271 20.4655C18.9261 20.9752 19.7325 21.252 20.5625 21.252C21.3926 21.252 22.1989 20.9752 22.854 20.4655C23.509 19.9557 23.9754 19.2421 24.1794 18.4375H26.1875C26.4361 18.4375 26.6746 18.3387 26.8504 18.1629C27.0262 17.9871 27.125 17.7486 27.125 17.5V10.9375C27.1251 10.8105 27.0992 10.6848 27.0491 10.5681ZM7.43751 19.375C7.06667 19.375 6.70416 19.265 6.39581 19.059C6.08747 18.853 5.84715 18.5601 5.70523 18.2175C5.56332 17.8749 5.52619 17.4979 5.59854 17.1342C5.67088 16.7705 5.84946 16.4364 6.11168 16.1742C6.37391 15.912 6.708 15.7334 7.07171 15.661C7.43543 15.5887 7.81243 15.6258 8.15504 15.7677C8.49765 15.9096 8.79049 16.15 8.99651 16.4583C9.20254 16.7666 9.31251 17.1292 9.31251 17.5C9.31201 17.9971 9.11431 18.4738 8.76279 18.8253C8.41126 19.1768 7.93464 19.3745 7.43751 19.375ZM20.5625 5.3125H22.7563L24.7663 10H20.5625V5.3125ZM20.5625 19.375C20.1917 19.375 19.8292 19.265 19.5208 19.059C19.2125 18.853 18.9721 18.5601 18.8302 18.2175C18.6883 17.8749 18.6512 17.4979 18.7235 17.1342C18.7959 16.7705 18.9745 16.4364 19.2367 16.1742C19.4989 15.912 19.833 15.7334 20.1967 15.661C20.5604 15.5887 20.9374 15.6258 21.28 15.7677C21.6227 15.9096 21.9155 16.15 22.1215 16.4583C22.3275 16.7666 22.4375 17.1292 22.4375 17.5C22.437 17.9971 22.2393 18.4738 21.8878 18.8253C21.5363 19.1768 21.0596 19.3745 20.5625 19.375ZM25.25 16.5625H24.1794C23.9729 15.7595 23.5057 15.0477 22.8512 14.5387C22.1966 14.0297 21.3917 13.7523 20.5625 13.75V11.875H25.25V16.5625Z" fill="white"/>
</svg>
