<svg width="27" height="21" viewBox="0 0 27 21" fill="none" xmlns="http://www.w3.org/2000/svg">
<path d="M1.875 9.375H13.125V11.25H1.875V9.375Z" fill="#0C54A1"/>
<path d="M0 4.6875H9.375V6.5625H0V4.6875Z" fill="#0C54A1"/>
<path d="M26.1725 9.94313L23.36 3.38062C23.2878 3.21195 23.1677 3.06819 23.0145 2.96719C22.8613 2.86619 22.6819 2.8124 22.4984 2.8125H19.6859V0.9375C19.6859 0.68886 19.5872 0.450403 19.4113 0.274588C19.2355 0.0987722 18.9971 0 18.7484 0H3.74842V1.875H17.8109V13.6462C17.3837 13.8943 17.0099 14.2245 16.7109 14.6177C16.412 15.011 16.1938 15.4595 16.069 15.9375H10.1778C9.94961 15.0538 9.40696 14.2836 8.65154 13.7713C7.89612 13.259 6.97981 13.0399 6.07436 13.1549C5.16891 13.2699 4.33648 13.7112 3.73312 14.396C3.12976 15.0809 2.79688 15.9623 2.79688 16.875C2.79687 17.7877 3.12976 18.6691 3.73312 19.354C4.33648 20.0388 5.16891 20.4801 6.07436 20.5951C6.97981 20.7101 7.89612 20.491 8.65154 19.9787C9.40696 19.4664 9.94961 18.6962 10.1778 17.8125H16.069C16.273 18.6171 16.7394 19.3307 17.3945 19.8405C18.0495 20.3502 18.8559 20.627 19.6859 20.627C20.516 20.627 21.3223 20.3502 21.9774 19.8405C22.6325 19.3307 23.0989 18.6171 23.3028 17.8125H25.3109C25.5596 17.8125 25.798 17.7137 25.9738 17.5379C26.1496 17.3621 26.2484 17.1236 26.2484 16.875V10.3125C26.2485 10.1855 26.2226 10.0598 26.1725 9.94313V9.94313ZM6.56092 18.75C6.19008 18.75 5.82757 18.64 5.51923 18.434C5.21089 18.228 4.97056 17.9351 4.82865 17.5925C4.68673 17.2499 4.6496 16.8729 4.72195 16.5092C4.7943 16.1455 4.97287 15.8114 5.2351 15.5492C5.49732 15.287 5.83141 15.1084 6.19513 15.036C6.55884 14.9637 6.93584 15.0008 7.27845 15.1427C7.62106 15.2846 7.9139 15.525 8.11993 15.8333C8.32595 16.1416 8.43592 16.5042 8.43592 16.875C8.43542 17.3721 8.23772 17.8488 7.8862 18.2003C7.53468 18.5518 7.05805 18.7495 6.56092 18.75V18.75ZM19.6859 4.6875H21.8797L23.8897 9.375H19.6859V4.6875ZM19.6859 18.75C19.3151 18.75 18.9526 18.64 18.6442 18.434C18.3359 18.228 18.0956 17.9351 17.9536 17.5925C17.8117 17.2499 17.7746 16.8729 17.8469 16.5092C17.9193 16.1455 18.0979 15.8114 18.3601 15.5492C18.6223 15.287 18.9564 15.1084 19.3201 15.036C19.6838 14.9637 20.0608 15.0008 20.4035 15.1427C20.7461 15.2846 21.0389 15.525 21.2449 15.8333C21.451 16.1416 21.5609 16.5042 21.5609 16.875C21.5604 17.3721 21.3627 17.8488 21.0112 18.2003C20.6597 18.5518 20.1831 18.7495 19.6859 18.75ZM24.3734 15.9375H23.3028C23.0963 15.1345 22.6291 14.4227 21.9746 13.9137C21.32 13.4047 20.5151 13.1273 19.6859 13.125V11.25H24.3734V15.9375Z" fill="#0C54A1"/>
</svg>
