<svg width="23" height="23" viewBox="0 0 23 23" fill="none" xmlns="http://www.w3.org/2000/svg">
<path d="M1.51133 0.0627527L4.95052 1.18092C5.40582 1.33569 5.70908 1.77329 5.76196 2.22095L5.95539 4.18135L21.5285 5.98065C22.1972 6.11472 22.6671 6.73962 22.5735 7.38202L21.6063 13.0216C21.4832 13.6115 21.0112 14.0159 20.4859 14.0226H6.65127L6.37999 15.6217H19.5188C20.2058 15.6468 20.709 16.1882 20.7171 16.8205C20.6886 17.5417 20.1269 18.0138 19.5188 18.0216H4.98827C4.25539 17.9589 3.71735 17.3578 3.83007 16.6227L4.44808 13.1022L3.48096 3.26099L0.815452 2.38212C0.506274 2.27545 0.274196 2.07482 0.119607 1.78149C-0.172889 1.14709 0.100316 0.444686 0.622055 0.140853C0.919833 -0.0193471 1.21065 -0.039314 1.51133 0.0627527ZM6.74798 18.7127C7.74849 18.7127 8.55958 19.5521 8.55958 20.5877C8.55958 21.6232 7.74849 22.4627 6.74798 22.4627C5.74753 22.4627 4.93639 21.6232 4.93639 20.5877C4.93639 19.5521 5.74746 18.7127 6.74798 18.7127ZM17.3816 18.7127C18.3821 18.7127 19.1932 19.5521 19.1932 20.5877C19.1932 21.6232 18.3821 22.4627 17.3816 22.4627C16.3812 22.4627 15.57 21.6232 15.57 20.5877C15.57 19.5521 16.3812 18.7127 17.3816 18.7127Z" fill="black"/>
</svg>
