<svg width="36" height="35" viewBox="0 0 36 35" fill="none" xmlns="http://www.w3.org/2000/svg">
<path d="M17.7536 0C7.94856 0 0 7.83501 0 17.5C0 27.165 7.94856 35 17.7536 35C27.5587 35 35.5072 27.165 35.5072 17.5C35.5072 7.83501 27.5587 0 17.7536 0ZM8.80529 7.39349L11.9651 8.37188C12.3834 8.5073 12.662 8.8902 12.7106 9.28191L12.8883 10.9973L27.1961 12.5717C27.8104 12.689 28.2421 13.2357 28.1561 13.7978L27.2676 18.7325C27.1545 19.2487 26.7208 19.6025 26.2382 19.6083H13.5276L13.2784 21.0076H25.3496C25.9808 21.0295 26.4432 21.5033 26.4506 22.0565C26.4244 22.6876 25.9083 23.1007 25.3496 23.1075H11.9997C11.3264 23.0526 10.8321 22.5266 10.9356 21.8834L11.5034 18.803L10.6149 10.1919L8.16596 9.42293C7.8819 9.3296 7.66868 9.15405 7.52665 8.89738C7.25792 8.34228 7.50892 7.72768 7.98827 7.46182C8.26186 7.32165 8.52905 7.30418 8.80529 7.39349ZM13.6165 23.7121C14.5357 23.7121 15.2809 24.4467 15.2809 25.3528C15.2809 26.2588 14.5357 26.9934 13.6165 26.9934C12.6973 26.9934 11.9521 26.2588 11.9521 25.3528C11.9521 24.4467 12.6972 23.7121 13.6165 23.7121ZM23.3861 23.7121C24.3053 23.7121 25.0505 24.4467 25.0505 25.3528C25.0505 26.2588 24.3053 26.9934 23.3861 26.9934C22.4669 26.9934 21.7217 26.2588 21.7217 25.3528C21.7217 24.4467 22.4669 23.7121 23.3861 23.7121Z" fill="#0C54A1"/>
</svg>
