<svg width="24" height="17" viewBox="0 0 24 17" fill="none" xmlns="http://www.w3.org/2000/svg">
<path d="M11 5C11 7.21 9.21 9 7 9C4.79 9 3 7.21 3 5C3 2.79 4.79 1 7 1C9.21 1 11 2.79 11 5ZM11 11.72V17H0V15C0 12.79 3.13 11 7 11C8.5 11 9.87 11.27 11 11.72ZM24 17H13V0H24V17ZM16 8.5C16 7.83696 16.2634 7.20107 16.7322 6.73223C17.2011 6.26339 17.837 6 18.5 6C19.163 6 19.7989 6.26339 20.2678 6.73223C20.7366 7.20107 21 7.83696 21 8.5C21 9.16304 20.7366 9.79893 20.2678 10.2678C19.7989 10.7366 19.163 11 18.5 11C17.837 11 17.2011 10.7366 16.7322 10.2678C16.2634 9.79893 16 9.16304 16 8.5ZM22 4C21.4696 4 20.9609 3.78929 20.5858 3.41421C20.2107 3.03914 20 2.53043 20 2H17C17 3.11 16.11 4 15 4V13C15.5304 13 16.0391 13.2107 16.4142 13.5858C16.7893 13.9609 17 14.4696 17 15H20C20 13.9 20.9 13 22 13V4Z" fill="#777777"/>
</svg>
