<svg width="33" height="33" viewBox="0 0 33 33" fill="none" xmlns="http://www.w3.org/2000/svg">
<path d="M28 10C30.7614 10 33 7.76142 33 5C33 2.23858 30.7614 0 28 0C25.2386 0 23 2.23858 23 5C23 7.76142 25.2386 10 28 10Z" fill="white"/>
<path d="M28 12.5C26.4392 12.4999 24.9178 12.0102 23.65 11.1C23.5791 11.2898 23.4522 11.4536 23.2861 11.5697C23.12 11.6858 22.9226 11.7487 22.72 11.75H9.28C9.01478 11.75 8.76043 11.6447 8.57289 11.4571C8.38536 11.2696 8.28 11.0152 8.28 10.75C8.28 10.4848 8.38536 10.2305 8.57289 10.0429C8.76043 9.85538 9.01478 9.75002 9.28 9.75002H22.2C21.3825 8.74263 20.8418 7.53945 20.6314 6.25925C20.4209 4.97906 20.548 3.66611 21 2.45002C19.3745 1.98295 17.6913 1.7473 16 1.75002C7.18 1.75002 0 8.03002 0 15.75C0 23.47 7.18 29.75 16 29.75C17.6501 29.7481 19.2922 29.5193 20.88 29.07L26.41 32.59C26.561 32.6869 26.7352 32.7414 26.9145 32.7477C27.0937 32.7541 27.2714 32.7121 27.4289 32.6263C27.5863 32.5404 27.7178 32.4137 27.8095 32.2595C27.9012 32.1054 27.9497 31.9294 27.95 31.75V25.02C29.2012 23.8197 30.1997 22.3812 30.8867 20.7892C31.5736 19.1972 31.9352 17.4839 31.95 15.75C31.9456 14.3883 31.7158 13.0367 31.27 11.75C30.2511 12.2451 29.1328 12.5015 28 12.5ZM19.75 21.75H12.25C11.9848 21.75 11.7304 21.6447 11.5429 21.4571C11.3554 21.2696 11.25 21.0152 11.25 20.75C11.25 20.4848 11.3554 20.2305 11.5429 20.0429C11.7304 19.8554 11.9848 19.75 12.25 19.75H19.75C20.0152 19.75 20.2696 19.8554 20.4571 20.0429C20.6446 20.2305 20.75 20.4848 20.75 20.75C20.75 21.0152 20.6446 21.2696 20.4571 21.4571C20.2696 21.6447 20.0152 21.75 19.75 21.75ZM23 16.75H9C8.73478 16.75 8.48043 16.6447 8.29289 16.4571C8.10536 16.2696 8 16.0152 8 15.75C8 15.4848 8.10536 15.2305 8.29289 15.0429C8.48043 14.8554 8.73478 14.75 9 14.75H23C23.2652 14.75 23.5196 14.8554 23.7071 15.0429C23.8946 15.2305 24 15.4848 24 15.75C24 16.0152 23.8946 16.2696 23.7071 16.4571C23.5196 16.6447 23.2652 16.75 23 16.75Z" fill="white"/>
</svg>
