<svg width="20" height="20" viewBox="0 0 20 20" fill="none" xmlns="http://www.w3.org/2000/svg">
<path d="M17.4602 8.89062H5.55469V10.0017H17.4602C17.6076 10.0017 17.7489 9.9432 17.8531 9.83902C17.9573 9.73483 18.0158 9.59352 18.0158 9.44618C18.0158 9.29884 17.9573 9.15753 17.8531 9.05334C17.7489 8.94916 17.6076 8.89062 17.4602 8.89062Z" fill="#424242"/>
<path d="M17.4602 13.3359H5.55469V14.447H17.4602C17.6076 14.447 17.7489 14.3885 17.8531 14.2843C17.9573 14.1801 18.0158 14.0388 18.0158 13.8915C18.0158 13.7442 17.9573 13.6028 17.8531 13.4987C17.7489 13.3945 17.6076 13.3359 17.4602 13.3359Z" fill="#424242"/>
<path d="M8.58398 5.55642H17.4729C17.6202 5.55642 17.7615 5.49789 17.8657 5.39371C17.9699 5.28952 18.0284 5.14821 18.0284 5.00087C18.0284 4.85353 17.9699 4.71222 17.8657 4.60803C17.7615 4.50384 17.6202 4.44531 17.4729 4.44531H9.6951L8.58398 5.55642Z" fill="#424242"/>
<path d="M9.7224 1.89849C9.66608 1.84155 9.59903 1.79634 9.52513 1.76549C9.45122 1.73464 9.37193 1.71875 9.29184 1.71875C9.21176 1.71875 9.13246 1.73464 9.05856 1.76549C8.98465 1.79634 8.9176 1.84155 8.86129 1.89849L4.38351 6.37627L2.50573 4.35405C2.39523 4.23543 2.24213 4.16558 2.08012 4.15985C1.91811 4.15412 1.76045 4.21298 1.64184 4.32349C1.52323 4.434 1.45338 4.5871 1.44765 4.74911C1.44192 4.91112 1.50078 5.06877 1.61129 5.18738L4.35573 8.13182L9.7224 2.77627C9.7812 2.71929 9.82795 2.65108 9.85988 2.57569C9.89181 2.5003 9.90826 2.41925 9.90826 2.33738C9.90826 2.2555 9.89181 2.17446 9.85988 2.09907C9.82795 2.02367 9.7812 1.95546 9.7224 1.89849Z" fill="#424242"/>
</svg>
