<svg width="20" height="20" viewBox="0 0 20 20" fill="none" xmlns="http://www.w3.org/2000/svg">
<path d="M17.4612 8.88889H5.55566V10H17.4612C17.6086 10 17.7499 9.94147 17.8541 9.83728C17.9582 9.73309 18.0168 9.59178 18.0168 9.44444C18.0168 9.2971 17.9582 9.15579 17.8541 9.0516C17.7499 8.94742 17.6086 8.88889 17.4612 8.88889Z" fill="black"/>
<path d="M17.4612 13.3333H5.55566V14.4444H17.4612C17.6086 14.4444 17.7499 14.3859 17.8541 14.2817C17.9582 14.1775 18.0168 14.0362 18.0168 13.8889C18.0168 13.7415 17.9582 13.6002 17.8541 13.496C17.7499 13.3919 17.6086 13.3333 17.4612 13.3333Z" fill="black"/>
<path d="M8.58301 5.55555H17.4719C17.6192 5.55555 17.7605 5.49702 17.8647 5.39284C17.9689 5.28865 18.0275 5.14734 18.0275 5C18.0275 4.85266 17.9689 4.71135 17.8647 4.60716C17.7605 4.50297 17.6192 4.44444 17.4719 4.44444H9.69412L8.58301 5.55555Z" fill="black"/>
<path d="M9.72191 1.9C9.66559 1.84306 9.59854 1.79785 9.52464 1.767C9.45073 1.73615 9.37144 1.72026 9.29135 1.72026C9.21127 1.72026 9.13198 1.73615 9.05807 1.767C8.98417 1.79785 8.91711 1.84306 8.8608 1.9L4.38302 6.37778L2.50524 4.35556C2.39474 4.23695 2.24164 4.16709 2.07963 4.16136C1.91762 4.15563 1.75997 4.21449 1.64135 4.325C1.52274 4.43551 1.45289 4.58861 1.44716 4.75062C1.44143 4.91263 1.50029 5.07028 1.6108 5.18889L4.35524 8.13333L9.72191 2.77778C9.78071 2.7208 9.82747 2.65259 9.85939 2.5772C9.89132 2.50181 9.90777 2.42077 9.90777 2.33889C9.90777 2.25701 9.89132 2.17597 9.85939 2.10058C9.82747 2.02518 9.78071 1.95697 9.72191 1.9Z" fill="black"/>
</svg>
