<svg width="18" height="14" viewBox="0 0 18 14" fill="none" xmlns="http://www.w3.org/2000/svg">
<path fill-rule="evenodd" clip-rule="evenodd" d="M5.24981 12.375C5.24981 12.2092 5.31566 12.0503 5.43287 11.933C5.55008 11.8158 5.70905 11.75 5.87481 11.75H17.1248C17.2906 11.75 17.4495 11.8158 17.5668 11.933C17.684 12.0503 17.7498 12.2092 17.7498 12.375C17.7498 12.5407 17.684 12.6997 17.5668 12.8169C17.4495 12.9341 17.2906 13 17.1248 13H5.87481C5.70905 13 5.55008 12.9341 5.43287 12.8169C5.31566 12.6997 5.24981 12.5407 5.24981 12.375ZM5.24981 7.37499C5.24981 7.20923 5.31566 7.05026 5.43287 6.93305C5.55008 6.81584 5.70905 6.74999 5.87481 6.74999H17.1248C17.2906 6.74999 17.4495 6.81584 17.5668 6.93305C17.684 7.05026 17.7498 7.20923 17.7498 7.37499C17.7498 7.54075 17.684 7.69972 17.5668 7.81693C17.4495 7.93414 17.2906 7.99999 17.1248 7.99999H5.87481C5.70905 7.99999 5.55008 7.93414 5.43287 7.81693C5.31566 7.69972 5.24981 7.54075 5.24981 7.37499ZM5.24981 2.37499C5.24981 2.20923 5.31566 2.05026 5.43287 1.93305C5.55008 1.81584 5.70905 1.74999 5.87481 1.74999H17.1248C17.2906 1.74999 17.4495 1.81584 17.5668 1.93305C17.684 2.05026 17.7498 2.20923 17.7498 2.37499C17.7498 2.54075 17.684 2.69972 17.5668 2.81693C17.4495 2.93414 17.2906 2.99999 17.1248 2.99999H5.87481C5.70905 2.99999 5.55008 2.93414 5.43287 2.81693C5.31566 2.69972 5.24981 2.54075 5.24981 2.37499ZM3.81731 0.682488C3.87552 0.740545 3.9217 0.809515 3.9532 0.885446C3.98471 0.961377 4.00093 1.04278 4.00093 1.12499C4.00093 1.2072 3.98471 1.2886 3.9532 1.36453C3.9217 1.44046 3.87552 1.50943 3.81731 1.56749L1.94231 3.44249C1.88426 3.50069 1.81529 3.54687 1.73936 3.57838C1.66342 3.60989 1.58202 3.62611 1.49981 3.62611C1.4176 3.62611 1.3362 3.60989 1.26027 3.57838C1.18434 3.54687 1.11537 3.50069 1.05731 3.44249L0.432313 2.81749C0.374203 2.75938 0.328108 2.69039 0.296659 2.61447C0.26521 2.53854 0.249023 2.45717 0.249023 2.37499C0.249023 2.29281 0.26521 2.21143 0.296659 2.13551C0.328108 2.05958 0.374203 1.9906 0.432313 1.93249C0.490423 1.87438 0.559409 1.82828 0.635334 1.79683C0.711258 1.76539 0.792633 1.7492 0.874813 1.7492C0.956993 1.7492 1.03837 1.76539 1.11429 1.79683C1.19022 1.82828 1.2592 1.87438 1.31731 1.93249L1.49981 2.11624L2.93231 0.682488C2.99037 0.624284 3.05934 0.578106 3.13527 0.546597C3.2112 0.515089 3.2926 0.498871 3.37481 0.498871C3.45702 0.498871 3.53842 0.515089 3.61436 0.546597C3.69029 0.578106 3.75926 0.624284 3.81731 0.682488ZM3.81731 5.68249C3.87552 5.74054 3.9217 5.80951 3.9532 5.88545C3.98471 5.96138 4.00093 6.04278 4.00093 6.12499C4.00093 6.2072 3.98471 6.2886 3.9532 6.36453C3.9217 6.44046 3.87552 6.50943 3.81731 6.56749L1.94231 8.44249C1.88426 8.50069 1.81529 8.54687 1.73936 8.57838C1.66342 8.60989 1.58202 8.6261 1.49981 8.6261C1.4176 8.6261 1.3362 8.60989 1.26027 8.57838C1.18434 8.54687 1.11537 8.50069 1.05731 8.44249L0.432313 7.81749C0.314955 7.70013 0.249023 7.54096 0.249023 7.37499C0.249023 7.20902 0.314955 7.04985 0.432313 6.93249C0.549671 6.81513 0.708843 6.7492 0.874813 6.7492C1.04078 6.7492 1.19995 6.81513 1.31731 6.93249L1.49981 7.11624L2.93231 5.68249C2.99037 5.62428 3.05934 5.57811 3.13527 5.5466C3.2112 5.51509 3.2926 5.49887 3.37481 5.49887C3.45702 5.49887 3.53842 5.51509 3.61436 5.5466C3.69029 5.57811 3.75926 5.62428 3.81731 5.68249ZM3.81731 10.6825C3.87552 10.7405 3.9217 10.8095 3.9532 10.8854C3.98471 10.9614 4.00093 11.0428 4.00093 11.125C4.00093 11.2072 3.98471 11.2886 3.9532 11.3645C3.9217 11.4405 3.87552 11.5094 3.81731 11.5675L1.94231 13.4425C1.88426 13.5007 1.81529 13.5469 1.73936 13.5784C1.66342 13.6099 1.58202 13.6261 1.49981 13.6261C1.4176 13.6261 1.3362 13.6099 1.26027 13.5784C1.18434 13.5469 1.11537 13.5007 1.05731 13.4425L0.432313 12.8175C0.314955 12.7001 0.249023 12.541 0.249023 12.375C0.249023 12.209 0.314955 12.0498 0.432313 11.9325C0.549671 11.8151 0.708843 11.7492 0.874813 11.7492C1.04078 11.7492 1.19995 11.8151 1.31731 11.9325L1.49981 12.1162L2.93231 10.6825C2.99037 10.6243 3.05934 10.5781 3.13527 10.5466C3.2112 10.5151 3.2926 10.4989 3.37481 10.4989C3.45702 10.4989 3.53842 10.5151 3.61436 10.5466C3.69029 10.5781 3.75926 10.6243 3.81731 10.6825Z" fill="black"/>
</svg>
