<svg width="26" height="26" viewBox="0 0 26 26" fill="none" xmlns="http://www.w3.org/2000/svg">
<path d="M8.07754 0.999974C8.01214 0.918116 7.92915 0.852028 7.83472 0.80661C7.7403 0.761193 7.63686 0.73761 7.53208 0.73761C7.42731 0.73761 7.32387 0.761193 7.22945 0.80661C7.13503 0.852028 7.05204 0.918116 6.98663 0.999974L0.877539 8.72088C0.780892 8.84273 0.728057 8.99355 0.727539 9.14906V24.5909C0.727539 24.7717 0.799373 24.9451 0.927239 25.073C1.0551 25.2009 1.22853 25.2727 1.40936 25.2727H5.50027C5.6811 25.2727 5.85452 25.2009 5.98239 25.073C6.11025 24.9451 6.18209 24.7717 6.18209 24.5909V19.8182H8.90936V24.5909C8.90936 24.7717 8.98119 24.9451 9.10906 25.073C9.23692 25.2009 9.41035 25.2727 9.59118 25.2727H11.6366V13C11.636 12.6002 11.7782 12.2133 12.0375 11.9091L14.3639 8.90906L8.07754 0.999974ZM6.18209 17.0909H3.45481V14.3636H6.18209V17.0909ZM6.18209 11.6363H3.45481V8.90906H6.18209V11.6363ZM20.3475 8.20543C20.2842 8.12637 20.2038 8.06257 20.1125 8.01872C20.0212 7.97488 19.9211 7.95212 19.8198 7.95212C19.7185 7.95212 19.6185 7.97488 19.5271 8.01872C19.4358 8.06257 19.3555 8.12637 19.2921 8.20543L14.5112 14.1782C14.4157 14.2984 14.3638 14.4474 14.3639 14.6009V24.5963C14.3639 24.7757 14.4352 24.9478 14.562 25.0746C14.6888 25.2014 14.8609 25.2727 15.0403 25.2727H24.5857C24.6745 25.2741 24.7628 25.2581 24.8454 25.2254C24.928 25.1927 25.0034 25.1441 25.0672 25.0823C25.131 25.0205 25.182 24.9468 25.2174 24.8653C25.2527 24.7837 25.2716 24.6961 25.273 24.6072V14.6009C25.2731 14.4474 25.2212 14.2984 25.1257 14.1782L20.3475 8.20543ZM17.0912 14.3636H19.8185V17.0909H17.0912V14.3636ZM22.5457 22.5454H19.8185V19.8182H22.5457V22.5454Z" fill="black" fill-opacity="0.6"/>
</svg>
