<svg width="42" height="42" viewBox="0 0 42 42" fill="none" xmlns="http://www.w3.org/2000/svg">
<path d="M23.502 17.2676C22.5545 17.2676 21.8203 18.0018 21.8203 18.9082C21.8203 19.8146 22.5545 20.5488 23.502 20.5488C24.3674 20.5488 25.1016 19.8146 25.1016 18.9082C25.1016 18.0018 24.3674 17.2676 23.502 17.2676ZM12.0176 17.2676C11.0701 17.2676 10.3359 18.0018 10.3359 18.9082C10.3359 19.8146 11.0701 20.5488 12.0176 20.5488C12.883 20.5488 13.6172 19.8146 13.6172 18.9082C13.6172 18.0018 12.883 17.2676 12.0176 17.2676Z" fill="#0C54A1"/>
<path d="M36.6684 14.1504C34.6955 11.4434 31.9393 9.63457 28.9164 8.81836V8.82246C28.2151 8.04317 27.4235 7.32539 26.5375 6.68555C19.8233 1.80469 10.3979 3.29356 5.49652 10.0078C1.54672 15.4629 1.71488 22.8006 5.74262 28.0137L5.77543 33.4523C5.77543 33.5836 5.79594 33.7148 5.83695 33.8379C6.05434 34.531 6.79262 34.9125 7.48168 34.6951L12.6743 33.0586C14.0483 33.5467 15.4674 33.8256 16.8784 33.9035L16.8579 33.9199C20.5123 36.5818 25.303 37.3816 29.6957 35.9297L34.9088 37.6277C35.0401 37.6687 35.1754 37.6934 35.3149 37.6934C36.0409 37.6934 36.6274 37.1068 36.6274 36.3809V30.8848C40.2409 25.9793 40.3352 19.1994 36.6684 14.1504ZM13.2485 30.1465L12.7563 29.9414L8.69574 31.2129L8.65473 26.9473L8.3266 26.5781C4.85668 22.3453 4.62699 16.2463 7.87543 11.7715C11.8293 6.34922 19.409 5.15157 24.8149 9.06446C30.2371 13.0061 31.4389 20.5734 27.5219 25.9629C24.2366 30.4705 18.3549 32.1357 13.2485 30.1465ZM33.9614 29.4492L33.6332 29.8594L33.6743 34.125L29.6547 32.7715L29.1625 32.9766C26.8657 33.8297 24.417 33.8994 22.1489 33.2637L22.1407 33.2596C25.1717 32.3285 27.9198 30.4418 29.9008 27.7266C33.0344 23.4076 33.543 17.9813 31.7219 13.3547L31.7465 13.3711C32.6899 14.0479 33.5553 14.8928 34.2895 15.9141C37.2672 19.9992 37.0991 25.5609 33.9614 29.4492Z" fill="#0C54A1"/>
<path d="M17.7598 17.2676C16.8123 17.2676 16.0781 18.0018 16.0781 18.9082C16.0781 19.8146 16.8123 20.5488 17.7598 20.5488C18.6252 20.5488 19.3594 19.8146 19.3594 18.9082C19.3594 18.0018 18.6252 17.2676 17.7598 17.2676Z" fill="#0C54A1"/>
</svg>
