<svg width="20" height="20" viewBox="0 0 20 20" fill="none" xmlns="http://www.w3.org/2000/svg">
<path d="M18.5254 6.10245C17.4518 4.50447 15.9518 3.43673 14.3069 2.95492V2.95734C13.9252 2.49732 13.4944 2.07361 13.0123 1.69591C9.3585 -1.18529 4.22935 -0.306406 1.56211 3.65706C-0.587315 6.87722 -0.495803 11.2087 1.69603 14.286L1.71388 17.4965C1.71388 17.574 1.72504 17.6515 1.74736 17.7241C1.86566 18.1333 2.26742 18.3584 2.6424 18.2301L5.46812 17.2641C6.21584 17.5522 6.98811 17.7168 7.75592 17.7628L7.74476 17.7725C9.73348 19.3439 12.3405 19.816 14.7309 18.9589L17.5678 19.9613C17.6392 19.9855 17.7129 20 17.7888 20C18.1839 20 18.503 19.6538 18.503 19.2252V15.9808C20.4694 13.0851 20.5208 9.08292 18.5254 6.10245ZM5.7806 15.545L5.51276 15.424L3.30307 16.1745L3.28075 13.6565L3.10219 13.4386C1.21391 10.94 1.08892 7.33967 2.85667 4.69817C5.00832 1.49737 9.13307 0.790387 12.0749 3.10019C15.0256 5.42694 15.6795 9.89401 13.548 13.0754C11.7601 15.7363 8.55945 16.7193 5.7806 15.545ZM17.0522 15.1334L16.8737 15.3756L16.896 17.8936L14.7086 17.0946L14.4408 17.2156C13.1909 17.7193 11.8584 17.7604 10.6241 17.3851L10.6196 17.3827C12.269 16.8331 13.7645 15.7194 14.8425 14.1165C16.5478 11.567 16.8246 8.36383 15.8336 5.63274L15.8469 5.64242C16.3603 6.04192 16.8313 6.54068 17.2308 7.14355C18.8512 9.55505 18.7597 12.8382 17.0522 15.1334Z" fill="#142A65"/>
</svg>
