<svg width="20" height="16" viewBox="0 0 20 16" fill="none" xmlns="http://www.w3.org/2000/svg">
<path d="M19.9429 7.57857L17.8 2.57857C17.7453 2.44947 17.6539 2.33931 17.537 2.26183C17.4201 2.18435 17.2831 2.14297 17.1429 2.14286H15V0.714286C15 0.524845 14.9247 0.343164 14.7908 0.20921C14.6568 0.075255 14.4752 0 14.2857 0H0.714286C0.524845 0 0.343164 0.075255 0.209209 0.20921C0.0752549 0.343164 0 0.524845 0 0.714286V12.8571C0 13.0466 0.0752549 13.2283 0.209209 13.3622C0.343164 13.4962 0.524845 13.5714 0.714286 13.5714H2.24286C2.40734 14.1767 2.76643 14.711 3.26471 15.092C3.76299 15.4729 4.37278 15.6793 5 15.6793C5.62722 15.6793 6.23701 15.4729 6.73529 15.092C7.23357 14.711 7.59266 14.1767 7.75714 13.5714H12.2429C12.4073 14.1767 12.7664 14.711 13.2647 15.092C13.763 15.4729 14.3728 15.6793 15 15.6793C15.6272 15.6793 16.237 15.4729 16.7353 15.092C17.2336 14.711 17.5927 14.1767 17.7571 13.5714H19.2857C19.4752 13.5714 19.6568 13.4962 19.7908 13.3622C19.9247 13.2283 20 13.0466 20 12.8571V7.85714C19.9998 7.76139 19.9804 7.66666 19.9429 7.57857ZM15 3.57143H16.6714L18.2 7.14286H15V3.57143ZM5 14.2857C4.71746 14.2857 4.44126 14.2019 4.20633 14.045C3.9714 13.888 3.7883 13.6649 3.68017 13.4038C3.57205 13.1428 3.54376 12.8556 3.59888 12.5784C3.654 12.3013 3.79006 12.0468 3.98985 11.847C4.18964 11.6472 4.44418 11.5111 4.7213 11.456C4.99842 11.4009 5.28565 11.4292 5.54669 11.5373C5.80773 11.6454 6.03084 11.8285 6.18781 12.0635C6.34479 12.2984 6.42857 12.5746 6.42857 12.8571C6.42857 13.236 6.27806 13.5994 6.01015 13.8673C5.74224 14.1352 5.37888 14.2857 5 14.2857ZM12.2429 12.1429H7.75714C7.59266 11.5376 7.23357 11.0033 6.73529 10.6223C6.23701 10.2414 5.62722 10.035 5 10.035C4.37278 10.035 3.76299 10.2414 3.26471 10.6223C2.76643 11.0033 2.40734 11.5376 2.24286 12.1429H1.42857V1.42857H13.5714V10.4C13.2462 10.5888 12.9614 10.8399 12.7334 11.139C12.5054 11.4381 12.3387 11.7792 12.2429 12.1429ZM15 14.2857C14.7175 14.2857 14.4413 14.2019 14.2063 14.045C13.9714 13.888 13.7883 13.6649 13.6802 13.4038C13.572 13.1428 13.5438 12.8556 13.5989 12.5784C13.654 12.3013 13.7901 12.0468 13.9898 11.847C14.1896 11.6472 14.4442 11.5111 14.7213 11.456C14.9984 11.4009 15.2857 11.4292 15.5467 11.5373C15.8077 11.6454 16.0308 11.8285 16.1878 12.0635C16.3448 12.2984 16.4286 12.5746 16.4286 12.8571C16.4286 13.236 16.2781 13.5994 16.0102 13.8673C15.7422 14.1352 15.3789 14.2857 15 14.2857ZM18.5714 12.1429H17.7571C17.5992 11.5311 17.2429 10.9889 16.744 10.6012C16.2452 10.2135 15.6318 10.0021 15 10V8.57143H18.5714V12.1429Z" fill="#424242"/>
</svg>
