<svg width="20" height="20" viewBox="0 0 20 20" fill="none" xmlns="http://www.w3.org/2000/svg">
<path d="M7.5 12.5L12.5 7.5" stroke="#424242" stroke-width="2" stroke-linecap="round" stroke-linejoin="round"/>
<path d="M7.91667 8.33333C8.14679 8.33333 8.33333 8.14679 8.33333 7.91667C8.33333 7.68655 8.14679 7.5 7.91667 7.5C7.68655 7.5 7.5 7.68655 7.5 7.91667C7.5 8.14679 7.68655 8.33333 7.91667 8.33333Z" fill="#424242" stroke="#424242" stroke-width="2" stroke-linecap="round" stroke-linejoin="round"/>
<path d="M12.0846 12.4974C12.3148 12.4974 12.5013 12.3108 12.5013 12.0807C12.5013 11.8506 12.3148 11.6641 12.0846 11.6641C11.8545 11.6641 11.668 11.8506 11.668 12.0807C11.668 12.3108 11.8545 12.4974 12.0846 12.4974Z" fill="#424242" stroke="#424242" stroke-width="2" stroke-linecap="round" stroke-linejoin="round"/>
<path d="M4.16705 5.99843C4.16705 5.5122 4.36021 5.04589 4.70402 4.70207C5.04784 4.35825 5.51415 4.1651 6.00038 4.1651H6.83372C7.3178 4.16482 7.78213 3.9731 8.12538 3.63176L8.70872 3.04843C8.87909 2.8771 9.08165 2.74113 9.30475 2.64835C9.52785 2.55557 9.76709 2.50781 10.0087 2.50781C10.2503 2.50781 10.4896 2.55557 10.7127 2.64835C10.9358 2.74113 11.1383 2.8771 11.3087 3.04843L11.8921 3.63176C12.2353 3.9731 12.6996 4.16482 13.1837 4.1651H14.017C14.5033 4.1651 14.9696 4.35825 15.3134 4.70207C15.6572 5.04589 15.8504 5.5122 15.8504 5.99843V6.83176C15.8507 7.31585 16.0424 7.78017 16.3837 8.12343L16.9671 8.70676C17.1384 8.87714 17.2743 9.0797 17.3671 9.3028C17.4599 9.5259 17.5077 9.76514 17.5077 10.0068C17.5077 10.2484 17.4599 10.4876 17.3671 10.7107C17.2743 10.9338 17.1384 11.1364 16.9671 11.3068L16.3837 11.8901C16.0424 12.2334 15.8507 12.6977 15.8504 13.1818V14.0151C15.8504 14.5013 15.6572 14.9676 15.3134 15.3115C14.9696 15.6553 14.5033 15.8484 14.017 15.8484H13.1837C12.6996 15.8487 12.2353 16.0404 11.8921 16.3818L11.3087 16.9651C11.1383 17.1364 10.9358 17.2724 10.7127 17.3652C10.4896 17.458 10.2503 17.5057 10.0087 17.5057C9.76709 17.5057 9.52785 17.458 9.30475 17.3652C9.08165 17.2724 8.87909 17.1364 8.70872 16.9651L8.12538 16.3818C7.78213 16.0404 7.3178 15.8487 6.83372 15.8484H6.00038C5.51415 15.8484 5.04784 15.6553 4.70402 15.3115C4.36021 14.9676 4.16705 14.5013 4.16705 14.0151V13.1818C4.16677 12.6977 3.97505 12.2334 3.63372 11.8901L3.05038 11.3068C2.87905 11.1364 2.74309 10.9338 2.65031 10.7107C2.55753 10.4876 2.50977 10.2484 2.50977 10.0068C2.50977 9.76514 2.55753 9.5259 2.65031 9.3028C2.74309 9.0797 2.87905 8.87714 3.05038 8.70676L3.63372 8.12343C3.97505 7.78017 4.16677 7.31585 4.16705 6.83176V5.99843" stroke="#424242" stroke-width="2" stroke-linecap="round" stroke-linejoin="round"/>
</svg>
