<svg width="18" height="18" viewBox="0 0 18 18" fill="none" xmlns="http://www.w3.org/2000/svg">
<path d="M6.5 11.5L11.5 6.5" stroke="black" stroke-opacity="0.6" stroke-width="2" stroke-linecap="round" stroke-linejoin="round"/>
<path d="M6.91667 7.33333C7.14679 7.33333 7.33333 7.14679 7.33333 6.91667C7.33333 6.68655 7.14679 6.5 6.91667 6.5C6.68655 6.5 6.5 6.68655 6.5 6.91667C6.5 7.14679 6.68655 7.33333 6.91667 7.33333Z" fill="black" fill-opacity="0.6" stroke="black" stroke-opacity="0.6" stroke-width="2" stroke-linecap="round" stroke-linejoin="round"/>
<path d="M11.0832 11.5C11.3133 11.5 11.4998 11.3134 11.4998 11.0833C11.4998 10.8532 11.3133 10.6667 11.0832 10.6667C10.8531 10.6667 10.6665 10.8532 10.6665 11.0833C10.6665 11.3134 10.8531 11.5 11.0832 11.5Z" fill="black" fill-opacity="0.6" stroke="black" stroke-opacity="0.6" stroke-width="2" stroke-linecap="round" stroke-linejoin="round"/>
<path d="M3.16656 4.99999C3.16656 4.51376 3.35972 4.04744 3.70353 3.70363C4.04735 3.35981 4.51367 3.16665 4.9999 3.16665H5.83323C6.31731 3.16638 6.78164 2.97466 7.1249 2.63332L7.70823 2.04999C7.8786 1.87865 8.08116 1.74269 8.30426 1.64991C8.52736 1.55713 8.76661 1.50937 9.00823 1.50937C9.24985 1.50937 9.48909 1.55713 9.71219 1.64991C9.93529 1.74269 10.1379 1.87865 10.3082 2.04999L10.8916 2.63332C11.2348 2.97466 11.6991 3.16638 12.1832 3.16665H13.0166C13.5028 3.16665 13.9691 3.35981 14.3129 3.70363C14.6567 4.04744 14.8499 4.51376 14.8499 4.99999V5.83332C14.8502 6.3174 15.0419 6.78173 15.3832 7.12499L15.9666 7.70832C16.1379 7.87869 16.2739 8.08125 16.3666 8.30436C16.4594 8.52746 16.5072 8.7667 16.5072 9.00832C16.5072 9.24995 16.4594 9.48918 16.3666 9.71229C16.2739 9.93539 16.1379 10.1379 15.9666 10.3083L15.3832 10.8917C15.0419 11.2349 14.8502 11.6992 14.8499 12.1833V13.0167C14.8499 13.5029 14.6567 13.9692 14.3129 14.313C13.9691 14.6568 13.5028 14.85 13.0166 14.85H12.1832C11.6991 14.8503 11.2348 15.042 10.8916 15.3833L10.3082 15.9667C10.1379 16.138 9.93529 16.274 9.71219 16.3667C9.48909 16.4595 9.24985 16.5073 9.00823 16.5073C8.76661 16.5073 8.52736 16.4595 8.30426 16.3667C8.08116 16.274 7.8786 16.138 7.70823 15.9667L7.1249 15.3833C6.78164 15.042 6.31731 14.8503 5.83323 14.85H4.9999C4.51367 14.85 4.04735 14.6568 3.70353 14.313C3.35972 13.9692 3.16656 13.5029 3.16656 13.0167V12.1833C3.16629 11.6992 2.97456 11.2349 2.63323 10.8917L2.0499 10.3083C1.87856 10.1379 1.7426 9.93539 1.64982 9.71229C1.55704 9.48918 1.50928 9.24995 1.50928 9.00832C1.50928 8.7667 1.55704 8.52746 1.64982 8.30436C1.7426 8.08125 1.87856 7.87869 2.0499 7.70832L2.63323 7.12499C2.97456 6.78173 3.16629 6.3174 3.16656 5.83332V4.99999" stroke="black" stroke-opacity="0.6" stroke-width="2" stroke-linecap="round" stroke-linejoin="round"/>
</svg>
