<svg width="24" height="24" viewBox="0 0 24 24" fill="none" xmlns="http://www.w3.org/2000/svg">
<path d="M23.59 3.47C23.3353 2.76966 22.9303 2.13363 22.4033 1.60669C21.8764 1.07974 21.2403 0.674678 20.54 0.42C19.23 2.98023e-08 18.04 0 15.62 0H8.36C5.96 0 4.75 0 3.46 0.4C2.75864 0.655739 2.12198 1.06233 1.59496 1.59107C1.06795 2.11981 0.663442 2.75781 0.41 3.46C0 4.76 0 5.96 0 8.36V15.63C0 18.04 0 19.23 0.4 20.53C0.654678 21.2303 1.05974 21.8664 1.58669 22.3933C2.11363 22.9203 2.74966 23.3253 3.45 23.58C4.75 23.99 5.95 23.99 8.35 23.99H15.63C18.04 23.99 19.24 23.99 20.53 23.59C21.2332 23.3355 21.8718 22.9295 22.4007 22.4007C22.9295 21.8718 23.3355 21.2332 23.59 20.53C24 19.23 24 18.03 24 15.63V8.38C24 5.97 24 4.77 23.59 3.47ZM17.42 8.1L16.49 9.03C16.3994 9.1143 16.2807 9.16199 16.1569 9.16384C16.0332 9.16569 15.9131 9.12156 15.82 9.04C14.9193 8.27937 13.7789 7.86143 12.6 7.86C11.63 7.86 10.66 8.18 10.66 9.07C10.66 9.97 11.7 10.27 12.9 10.72C15 11.42 16.74 12.3 16.74 14.36C16.74 16.6 15 18.14 12.16 18.31L11.9 19.51C11.877 19.6203 11.8167 19.7193 11.7293 19.7903C11.6419 19.8613 11.5326 19.9001 11.42 19.9H9.63L9.54 19.89C9.41188 19.8613 9.3002 19.7833 9.2291 19.6729C9.158 19.5625 9.13318 19.4285 9.16 19.3L9.44 18.03C8.36222 17.7598 7.37104 17.2195 6.56 16.46V16.45C6.51525 16.4054 6.47975 16.3524 6.45552 16.2941C6.43129 16.2357 6.41882 16.1732 6.41882 16.11C6.41882 16.0468 6.43129 15.9843 6.45552 15.9259C6.47975 15.8676 6.51525 15.8146 6.56 15.77L7.56 14.8C7.65081 14.7149 7.77057 14.6676 7.895 14.6676C8.01943 14.6676 8.13919 14.7149 8.23 14.8C9.14 15.66 10.36 16.14 11.62 16.12C12.92 16.12 13.79 15.57 13.79 14.7C13.79 13.83 12.91 13.6 11.25 12.98C9.49 12.35 7.82 11.46 7.82 9.38C7.82 6.96 9.83 5.78 12.21 5.67L12.46 4.44C12.4833 4.33069 12.5439 4.23291 12.6316 4.16354C12.7192 4.09417 12.8283 4.05755 12.94 4.06H14.72L14.82 4.07C15.08 4.13 15.25 4.38 15.19 4.64L14.92 6.01C15.82 6.31 16.67 6.78 17.4 7.4L17.42 7.42C17.61 7.62 17.61 7.92 17.42 8.1Z" fill="#0C54A1"/>
</svg>
