<svg width="15" height="15" viewBox="0 0 15 15" fill="none" xmlns="http://www.w3.org/2000/svg">
<path d="M8.25 1C4.8 1 2 3.8 2 7.25C2 10.7 4.8 13.5 8.25 13.5C11.7 13.5 14.5 10.7 14.5 7.25C14.5 3.8 11.7 1 8.25 1ZM8.25 12.25C5.4875 12.25 3.25 10.0125 3.25 7.25C3.25 4.4875 5.4875 2.25 8.25 2.25C11.0125 2.25 13.25 4.4875 13.25 7.25C13.25 10.0125 11.0125 12.25 8.25 12.25Z" fill="white"/>
<path d="M8.125 10.25C9.85089 10.25 11.25 8.85089 11.25 7.125C11.25 5.39911 9.85089 4 8.125 4C6.39911 4 5 5.39911 5 7.125C5 8.85089 6.39911 10.25 8.125 10.25Z" fill="white"/>
</svg>
