<svg width="20" height="25" viewBox="0 0 20 25" fill="none" xmlns="http://www.w3.org/2000/svg">
<path d="M18.8062 6.25122C19.2787 5.77872 19.5387 5.15122 19.5387 4.48372C19.5387 3.81622 19.2787 3.18872 18.8062 2.71622L16.8237 0.733721C16.3512 0.261221 15.7238 0.0012207 15.0562 0.0012207C14.3888 0.0012207 13.7612 0.261221 13.29 0.732471L0 13.9812V19.5H5.51625L18.8062 6.25122ZM15.0562 2.50122L17.04 4.48247L15.0525 6.46247L13.07 4.48122L15.0562 2.50122ZM2.5 17V15.0187L11.3 6.24622L13.2825 8.22872L4.48375 17H2.5ZM0 22H20V24.5H0V22Z" fill="black" fill-opacity="0.6"/>
</svg>
