<svg width="16" height="19" viewBox="0 0 16 19" fill="none" xmlns="http://www.w3.org/2000/svg">
<path d="M14.4573 4.78646C14.8038 4.43996 14.9944 3.97979 14.9944 3.49029C14.9944 3.00079 14.8038 2.54063 14.4573 2.19412L13.0034 0.740292C12.6569 0.393792 12.1968 0.203125 11.7073 0.203125C11.2178 0.203125 10.7576 0.393792 10.412 0.739375L0.666016 10.4551V14.5022H4.71127L14.4573 4.78646ZM11.7073 2.03646L13.162 3.48938L11.7045 4.94138L10.2507 3.48846L11.7073 2.03646ZM2.49935 12.6689V11.216L8.95268 4.78279L10.4065 6.23662L3.9541 12.6689H2.49935ZM0.666016 16.3355H15.3327V18.1689H0.666016V16.3355Z" fill="black" fill-opacity="0.2"/>
</svg>
