<svg width="24" height="20" viewBox="0 0 24 20" fill="none" xmlns="http://www.w3.org/2000/svg">
<path d="M12.6681 1.83215L11.9988 2.45847L11.3295 1.83215C10.717 1.25182 9.9874 0.791065 9.18313 0.476592C8.37886 0.162119 7.51587 0.000188398 6.64421 0.000188398C5.77255 0.000188398 4.90956 0.162119 4.10529 0.476592C3.30102 0.791065 2.57147 1.25182 1.95895 1.83215C1.33842 2.40536 0.845721 3.08818 0.509442 3.84098C0.173163 4.59379 0 5.4016 0 6.21753C0 7.03346 0.173163 7.84126 0.509442 8.59407C0.845721 9.34688 1.33842 10.0297 1.95895 10.6029L11.9988 20L22.0411 10.6029C22.6616 10.0297 23.1543 9.34688 23.4906 8.59407C23.8268 7.84126 24 7.03346 24 6.21753C24 5.4016 23.8268 4.59379 23.4906 3.84098C23.1543 3.08818 22.6616 2.40536 22.0411 1.83215C21.4283 1.25176 20.6986 0.790951 19.8941 0.476448C19.0896 0.161946 18.2264 0 17.3546 0C16.4827 0 15.6195 0.161946 14.8151 0.476448C14.0106 0.790951 13.2809 1.25176 12.6681 1.83215Z" fill="#FF0000"/>
</svg>
