<svg width="35" height="29" viewBox="0 0 35 29" fill="none" xmlns="http://www.w3.org/2000/svg">
<path d="M19.1555 3.38875L19.16 3.38458C19.9575 2.63347 20.9112 2.03355 21.9676 1.62291C23.0241 1.21225 24.16 1 25.3088 1C26.4576 1 27.5934 1.21225 28.6499 1.62291C29.7063 2.03355 30.6601 2.63347 31.4576 3.38458L31.4575 3.38464L31.4668 3.3931C32.2745 4.135 32.9116 5.01477 33.3449 5.97923C33.7781 6.94347 34 7.97525 34 9.01541C34 10.0556 33.7781 11.0874 33.3449 12.0516C32.9116 13.0161 32.2745 13.8958 31.4668 14.6377L31.4667 14.6377L31.462 14.6421L17.4983 27.634L3.53806 14.6422L3.53807 14.6422L3.53324 14.6377C2.72549 13.8958 2.08841 13.0161 1.65511 12.0516C1.22191 11.0874 1 10.0556 1 9.01541C1 7.97525 1.22191 6.94347 1.65511 5.97924C2.08841 5.01477 2.72549 4.135 3.53324 3.3931L3.5333 3.39316L3.54248 3.38451C4.3397 2.63352 5.29313 2.03368 6.34924 1.6231C7.40541 1.21249 8.54097 1.00027 9.68947 1.00027C10.838 1.00027 11.9735 1.21249 13.0297 1.6231C14.0858 2.03368 15.0392 2.63352 15.8365 3.38451L15.8365 3.38452L15.841 3.38873L16.8171 4.2969L17.4983 4.93067L18.1794 4.2969L19.1555 3.38873L19.1555 3.38875Z" stroke="#0C54A1" stroke-width="2"/>
</svg>
