<svg width="24" height="20" viewBox="0 0 24 20" fill="none" xmlns="http://www.w3.org/2000/svg">
<path d="M13.0098 2.19724L13.0098 2.19723L12.3404 2.82356L11.9988 3.14324L11.6572 2.82355L10.9878 2.19723L10.9856 2.19512L10.9856 2.19511C10.421 1.66019 9.74671 1.23382 9.00105 0.942261C8.25536 0.650692 7.45417 0.500188 6.64421 0.500188C5.83425 0.500188 5.03306 0.650692 4.28737 0.942261C3.54171 1.23382 2.86744 1.66019 2.30283 2.19511L2.29825 2.19945L2.29822 2.19942C1.72618 2.72784 1.27394 3.35547 0.965965 4.04491M13.0098 2.19724L0.965965 4.04491M13.0098 2.19724L13.012 2.19515M13.0098 2.19724L13.012 2.19515M0.965965 4.04491C0.658038 4.73425 0.5 5.47263 0.5 6.21753C0.5 6.96242 0.658038 7.7008 0.965965 8.39014C1.27394 9.07958 1.72618 9.70721 2.29822 10.2356M0.965965 4.04491L2.29822 10.2356M13.012 2.19515C13.5768 1.66014 14.2513 1.23372 14.9971 0.942127L14.8151 0.476448L14.9971 0.942127C15.743 0.650522 16.5444 0.5 17.3546 0.5C18.1648 0.5 18.9661 0.650522 19.712 0.942127C20.4579 1.23372 21.1324 1.66014 21.6972 2.19515L21.6972 2.19518L21.7018 2.19942C22.2738 2.72784 22.7261 3.35547 23.034 4.04491C23.342 4.73425 23.5 5.47263 23.5 6.21753C23.5 6.96242 23.342 7.7008 23.034 8.39014L23.4906 8.59407L23.034 8.39014C22.7261 9.07959 22.2738 9.70721 21.7018 10.2356L21.6994 10.2378L11.9988 19.3152L2.30062 10.2379L2.30063 10.2379M13.012 2.19515L2.30063 10.2379M2.30063 10.2379L2.29822 10.2356M2.30063 10.2379L2.29822 10.2356" fill="white" stroke="#878787"/>
</svg>
