<svg width="20" height="17" viewBox="0 0 20 17" fill="none" xmlns="http://www.w3.org/2000/svg">
<path d="M9.15634 2.99142L10 4.31717L10.8437 2.99142C11.6137 1.78135 12.9765 1 14.5455 1C16.9932 1 19 3.00683 19 5.45455C19 6.51731 18.5076 7.67369 17.6311 8.86887C16.7623 10.0537 15.582 11.1863 14.3668 12.1806C13.1564 13.1708 11.9411 13.9999 11.0256 14.5825C10.6114 14.8461 10.2605 15.058 10.0019 15.2102C9.74297 15.0568 9.39157 14.8431 8.97664 14.5775C8.06085 13.9913 6.84508 13.1578 5.63429 12.1644C4.41855 11.1669 3.23771 10.0325 2.36843 8.84905C1.49096 7.65449 1 6.5043 1 5.45455C1 3.00683 3.00683 1 5.45455 1C7.02349 1 8.38629 1.78135 9.15634 2.99142Z" stroke="#424242" stroke-width="2"/>
</svg>
