<svg width="25" height="25" viewBox="0 0 25 25" fill="none" xmlns="http://www.w3.org/2000/svg">
<path d="M22.418 0C23.8506 0 25 1.18581 25 2.63657V4.56989C25 5.27443 24.7257 5.94964 24.2364 6.44293L15.7779 15.0191L15.7786 21.513C15.7786 21.8085 15.6293 22.0808 15.3872 22.2406L15.2779 22.302L9.72408 24.9159C9.14567 25.1882 8.4806 24.7661 8.4806 24.1269L8.48023 14.9994L0.688529 6.40774C0.294292 5.97393 0.0568978 5.4195 0.00901073 4.83467L0 4.61411V2.63657C0 1.18581 1.14943 0 2.58196 0H22.418ZM22.418 1.74411H2.58196C2.1251 1.74411 1.74419 2.13709 1.74419 2.63657V4.61411C1.74419 4.84744 1.82907 5.06941 1.97993 5.23542L9.99869 14.0767C10.1442 14.2372 10.2248 14.446 10.2248 14.6626L10.2244 22.7514L14.0337 20.9596L14.0344 14.6626C14.0344 14.4792 14.0922 14.3018 14.1976 14.1546L14.2855 14.0503L22.9963 5.21655C23.1612 5.05028 23.2558 4.81732 23.2558 4.56989V2.63657C23.2558 2.13709 22.8749 1.74411 22.418 1.74411Z" fill="#0C54A1"/>
</svg>
