<svg width="30" height="22" viewBox="0 0 30 22" fill="none" xmlns="http://www.w3.org/2000/svg">
<path d="M0 3.50002V6.83335H30V3.50002C30 2.61597 29.6488 1.76812 29.0237 1.143C28.3986 0.517876 27.5507 0.166687 26.6667 0.166687H3.33333C2.44928 0.166687 1.60143 0.517876 0.976311 1.143C0.35119 1.76812 0 2.61597 0 3.50002H0Z" fill="#0099B5"/>
<path d="M30 18.5V15.1667H0V18.5C0 19.3841 0.35119 20.2319 0.976311 20.857C1.60143 21.4822 2.44928 21.8334 3.33333 21.8334H26.6667C27.5507 21.8334 28.3986 21.4822 29.0237 20.857C29.6488 20.2319 30 19.3841 30 18.5Z" fill="#1EB53A"/>
<path d="M0 6.83331H30V8.08331H0V6.83331ZM0 13.9166H30V15.1666H0V13.9166Z" fill="#CE1126"/>
<path d="M0 11V13.9166H30V8.08331H0V11Z" fill="#EEEEEE"/>
<path d="M3.50028 3.63332C3.50035 3.01894 3.71799 2.42444 4.1146 1.95522C4.5112 1.486 5.06116 1.17239 5.66695 1.06999C5.29402 1.00669 4.91177 1.02552 4.54688 1.12517C4.18198 1.22482 3.84322 1.40289 3.55423 1.64696C3.26525 1.89103 3.03299 2.19521 2.87368 2.53828C2.71437 2.88136 2.63184 3.25506 2.63184 3.63332C2.63184 4.01159 2.71437 4.38529 2.87368 4.72837C3.03299 5.07144 3.26525 5.37562 3.55423 5.61969C3.84322 5.86376 4.18198 6.04183 4.54688 6.14148C4.91177 6.24113 5.29402 6.25996 5.66695 6.19666C5.06116 6.09426 4.5112 5.78065 4.1146 5.31143C3.71799 4.84221 3.50035 4.24771 3.50028 3.63332V3.63332ZM7.40278 5.55249L7.28611 5.19332L7.16945 5.55249H6.79111L7.09695 5.77499L6.98028 6.13416L7.28611 5.91166L7.59111 6.13416L7.47445 5.77499L7.78028 5.55249H7.40278ZM9.65445 5.55249L9.53778 5.19332L9.42111 5.55249H9.04361L9.34945 5.77499L9.23278 6.13416L9.53778 5.91166L9.84361 6.13416L9.72695 5.77499L10.0328 5.55249H9.65445ZM9.53778 3.11333L9.42111 3.47249H9.04361L9.34945 3.69499L9.23278 4.05416L9.53778 3.83166L9.84361 4.05416L9.72695 3.69499L10.0328 3.47249H9.65445L9.53778 3.11333ZM11.9069 5.55249L11.7903 5.19332L11.6736 5.55249H11.2961L11.6011 5.77499L11.4844 6.13416L11.7903 5.91166L12.0961 6.13416L11.9794 5.77499L12.2844 5.55249H11.9069ZM11.7903 3.11333L11.6736 3.47249H11.2961L11.6011 3.69499L11.4844 4.05416L11.7903 3.83166L12.0961 4.05416L11.9794 3.69499L12.2844 3.47249H11.9069L11.7903 3.11333ZM11.7903 1.03333L11.6736 1.39249H11.2961L11.6011 1.61499L11.4844 1.97416L11.7903 1.75166L12.0961 1.97416L11.9794 1.61499L12.2844 1.39249H11.9069L11.7903 1.03333ZM14.1594 5.55249L14.0428 5.19332L13.9261 5.55249H13.5478L13.8536 5.77499L13.7369 6.13416L14.0428 5.91166L14.3478 6.13416L14.2311 5.77499L14.5369 5.55249H14.1594ZM14.0428 3.11333L13.9261 3.47249H13.5478L13.8536 3.69499L13.7369 4.05416L14.0428 3.83166L14.3478 4.05416L14.2311 3.69499L14.5369 3.47249H14.1594L14.0428 3.11333ZM14.0428 1.03333L13.9261 1.39249H13.5478L13.8536 1.61499L13.7369 1.97416L14.0428 1.75166L14.3478 1.97416L14.2311 1.61499L14.5369 1.39249H14.1594L14.0428 1.03333ZM16.4111 5.55249L16.2944 5.19332L16.1778 5.55249H15.8003L16.1061 5.77499L15.9894 6.13416L16.2944 5.91166L16.6003 6.13416L16.4836 5.77499L16.7894 5.55249H16.4111ZM16.2944 3.11333L16.1778 3.47249H15.8003L16.1061 3.69499L15.9894 4.05416L16.2944 3.83166L16.6003 4.05416L16.4836 3.69499L16.7894 3.47249H16.4111L16.2944 3.11333ZM16.2944 1.03333L16.1778 1.39249H15.8003L16.1061 1.61499L15.9894 1.97416L16.2944 1.75166L16.6003 1.97416L16.4836 1.61499L16.7894 1.39249H16.4111L16.2944 1.03333Z" fill="white"/>
</svg>
