<svg width="36" height="35" viewBox="0 0 36 35" fill="none" xmlns="http://www.w3.org/2000/svg">
<path d="M17.7536 0C27.5575 0 35.5072 7.83613 35.5072 17.5C35.5072 27.1639 27.5575 35 17.7536 35C7.94851 35 0 27.1645 0 17.5C0 7.83554 7.94851 0 17.7536 0ZM17.7536 2.625C9.41931 2.625 2.66304 9.28525 2.66304 17.5C2.66304 25.7148 9.41931 32.375 17.7536 32.375C26.0868 32.375 32.8442 25.7141 32.8442 17.5C32.8442 9.28587 26.0868 2.625 17.7536 2.625ZM24.7054 13.9191L24.855 14.0459C25.3288 14.5109 25.3733 15.2399 24.9877 15.7546L24.8591 15.9021L18.6968 22.0026C18.2237 22.4709 17.4813 22.5135 16.9592 22.1303L16.8097 22.0026L10.6474 15.9021C10.1286 15.3884 10.1304 14.5574 10.6515 14.0459C11.1252 13.5809 11.865 13.5401 12.3855 13.9225L12.5345 14.0499L17.7515 19.215L22.972 14.0499C23.4437 13.5829 24.1833 13.539 24.7054 13.9191Z" fill="#0C54A1"/>
</svg>
