<svg width="64" height="48" viewBox="0 0 64 48" fill="none" xmlns="http://www.w3.org/2000/svg">
<g clip-path="url(#clip0_106_2)">
<path fill-rule="evenodd" clip-rule="evenodd" d="M-4.03601 0H68.0362V48H-4.03601V0Z" fill="#BE0027"/>
<path fill-rule="evenodd" clip-rule="evenodd" d="M17.8499 24.4819C19.1304 22.9247 21.7827 24.4445 23.9479 23.3232C21.3831 23.4642 19.9851 22.0924 17.9588 22.2847C20.0583 20.9949 21.8457 22.7065 24.1933 22.0185C21.0841 21.7569 21.2189 20.3671 18.3917 20.1698C20.9031 19.0986 22.1451 21.2713 24.6051 20.7772C21.7057 20.1078 21.3196 18.4 19.1639 18.0385C22.3147 17.5629 22.1093 19.4255 25.198 19.6529C22.0629 18.3081 22.8847 17.1407 20.2626 16.1164C23.1967 16.047 23.0021 18.0804 25.9748 18.6139C23.43 16.9995 23.7444 15.5262 21.6483 14.3734C24.1349 14.4184 24.3777 16.9636 26.9155 17.7521C24.6517 15.9559 25.2471 14.4415 23.2908 12.8375C25.7642 13.4176 25.4041 15.6134 27.9801 17.0142C26.071 14.8941 26.8035 13.3763 25.1381 11.6407C27.5169 12.4068 26.6133 14.4937 29.0817 16.4777C27.6667 14.1475 28.5403 12.6614 27.1478 10.6955C29.3564 11.836 28.2869 13.9647 30.3374 16.0915C29.3723 13.7002 30.3388 12.2148 29.3524 10.0971C31.2416 11.5087 30.1179 13.7836 31.6419 15.9538C31.0864 12.9613 32.377 12.4691 31.9754 9.84845C33.4104 11.61 31.8065 13.3716 32.9081 15.9666C32.7741 13.0157 34.3419 12.3295 34.0701 9.96029C35.4922 12.0833 33.2725 13.9309 34.2008 16.2045C34.4408 13.4048 36.2807 12.6798 36.3093 10.5011C37.428 12.501 34.9864 13.9391 35.3827 16.5907C36.1861 13.666 38.146 13.3046 38.3773 11.3383C39.0556 13.6519 36.3837 14.7274 36.54 17.2914C37.3359 14.6913 39.7856 14.3863 40.2864 12.4657C40.5955 14.9132 38.1864 15.3477 37.5082 18.0518C38.7749 15.8449 40.9903 15.6639 41.9878 13.9183C41.9095 16.3386 39.1899 16.6558 38.3552 18.922C39.9232 16.9992 41.8887 17.333 43.4566 15.6281C43.2911 17.8124 40.5229 17.6889 39.0495 19.9504C40.7498 18.3818 43.309 18.8518 44.6117 17.5012C44.5485 19.4332 41.1516 19.2879 39.5496 21.0148C41.5254 19.9325 44.0268 20.5682 45.4769 19.5629C45.212 21.2568 41.626 20.8609 39.9123 22.1829C42.2758 21.528 44.1008 22.54 46.0156 21.8083C45.0837 23.4571 41.8312 22.4135 40.1043 23.4853C42.1555 23.138 44.3349 24.3806 46.2066 23.9819C45.5914 25.407 42.0272 23.8959 40.1044 24.7824C42.4022 24.7622 43.8921 26.2293 46.0231 26.1324C44.8641 27.4225 41.7305 25.6483 39.9048 25.9514C42.1323 26.4121 43.8339 28.2578 45.5228 28.3467C44.1368 29.4109 41.5457 26.9875 39.4419 27.2952C41.6079 27.8751 43.4277 30.3395 44.6707 30.3935C43.3315 31.3087 40.6847 28.2875 38.8713 28.3948C41.0739 29.3904 42.0842 31.9119 43.5304 32.2663C41.7398 32.8408 39.9803 29.5272 38.0563 29.4124C40.2848 30.818 40.4108 32.9672 42.1267 33.924C40.3213 34.3654 39.0363 30.6271 37.1336 30.3116C38.9608 31.6548 39.2363 34.5239 40.4478 35.4311C38.6096 35.5283 37.9454 31.6142 36.0615 31.0551C37.6755 32.4032 37.2891 35.3282 38.544 36.5735C36.6291 36.1807 36.8759 32.773 34.8767 31.6255C36.3129 33.4368 35.5824 36.0174 36.5184 37.4696C34.6556 36.7161 35.4647 33.6664 33.6863 31.9393C34.6564 33.8689 33.6137 36.1193 34.3788 37.9849C32.6769 37.1548 33.8215 33.5426 32.5173 32.11C33.1168 34.3399 32.011 36.1853 32.4567 38.1844C30.7168 36.1663 32.7208 34.1354 31.2116 32.0789C31.6122 34.4393 29.9614 36.0818 30.221 38.0574C28.8414 36.4459 30.9621 33.8599 29.8902 31.8251C30.121 34.1458 27.9894 36.1789 28.1357 37.6404C27.0128 35.7684 29.3824 33.5545 28.7479 31.4261C28.6143 33.636 26.4632 34.837 26.0581 36.8501C25.335 34.6293 27.8922 33.024 27.6714 30.8417C26.9392 32.9177 24.8606 33.7501 24.1284 35.7621C23.5288 33.5474 26.5578 32.3714 26.6379 30.0414C25.7016 32.2266 23.2139 32.7064 22.3929 34.3787C22.0864 32.1756 25.5624 31.1905 25.6917 29.1029C24.5727 31.1075 21.8508 31.1889 20.9113 32.783C20.7688 30.5877 24.4346 30.3159 25.0101 28.0181C23.8961 29.7317 20.91 29.5094 19.6676 30.9025C19.8636 28.8661 23.829 28.7401 24.461 26.9088C22.9869 28.3308 20.2457 27.7415 18.7023 28.8694C19.5613 26.8692 23.2809 27.2933 24.1218 25.8444C22.4752 26.7035 19.558 25.8706 18.1221 26.7297C19.4271 24.8354 22.3224 25.9671 23.9608 24.6625C21.2957 25.0509 19.6946 23.9904 17.85 24.4813L17.8499 24.4819Z" fill="#FFFF00"/>
<path fill-rule="evenodd" clip-rule="evenodd" d="M41.3333 24.0104C41.3333 29.1479 37.1685 33.3126 32.0311 33.3126C26.8936 33.3126 22.7291 29.1478 22.7291 24.0104C22.7291 18.8729 26.8938 14.7084 32.0311 14.7084C37.1686 14.7084 41.3333 18.873 41.3333 24.0104Z" fill="#FFFF00"/>
<path fill-rule="evenodd" clip-rule="evenodd" d="M40.1362 24.0288C40.1362 28.4954 36.5153 32.1161 32.0488 32.1161C27.5823 32.1161 23.9616 28.4953 23.9616 24.0288C23.9616 19.5622 27.5824 15.9415 32.0488 15.9415C36.5155 15.9415 40.1362 19.5623 40.1362 24.0288Z" fill="#BE0027"/>
<path fill-rule="evenodd" clip-rule="evenodd" d="M39.0099 24.0457C39.0099 27.8811 35.9008 30.9902 32.0654 30.9902C28.23 30.9902 25.1209 27.881 25.1209 24.0457C25.1209 20.2104 28.2301 17.1011 32.0654 17.1011C35.9008 17.1011 39.0099 20.2104 39.0099 24.0457Z" fill="#FFFF00"/>
<path fill-rule="evenodd" clip-rule="evenodd" d="M26.1553 19.4953C28.0772 19.4531 30.4708 19.6283 32.0483 20.8916C33.7226 19.8459 35.705 19.3624 37.7239 19.5497L38.7575 21.4355C37.2585 21.2843 35.7958 21.4961 34.0611 22.1971C36.2733 23.9499 37.3794 26.2106 37.3069 28.9606C37.0531 29.2749 36.6541 29.6254 36.4003 29.9397C36.769 27.2682 35.3607 24.2885 33.3178 22.723C34.9799 25.1226 35.9713 27.2863 35.6933 30.2661C35.397 30.4414 35.0464 30.6892 34.7503 30.8645C35.1853 28.2353 34.5691 25.1527 32.6288 23.3576C33.7469 25.0017 34.8652 27.9512 34.17 30.9551C33.8678 31.0458 33.4024 31.2997 33.1003 31.3903C33.88 28.9304 33.3902 25.8538 32.0848 24.0104C30.7914 25.8661 30.3682 28.7007 31.1055 31.3179C30.7428 31.2272 30.4708 31.1184 30.1083 31.0277C29.5765 28.2112 30.3139 25.0317 31.5952 23.3758C30.2897 24.1315 29.0566 27.3709 29.4011 30.6833C29.0868 30.5382 28.8449 30.4294 28.5308 30.2843C28.1077 27.8122 29.2258 24.5968 30.8337 22.7412C29.0083 23.8896 27.5275 26.7062 27.7873 29.7403C27.5093 29.4926 27.2493 29.3717 26.9713 29.1239C26.651 26.4764 28.1802 23.8111 29.9813 22.2154C28.4642 21.5383 27.1648 21.4054 25.285 21.4356C25.5811 20.8251 25.8592 20.1059 26.1553 19.4954L26.1553 19.4953Z" fill="#BE0027"/>
</g>
<defs>
<clipPath id="clip0_106_2">
<rect width="64" height="48" rx="5" fill="white"/>
</clipPath>
</defs>
</svg>
