<svg width="20" height="16" viewBox="0 0 20 16" fill="none" xmlns="http://www.w3.org/2000/svg">
<path d="M9.1565 3.53688L10.0002 4.86263L10.8438 3.53688C11.5343 2.4518 12.757 1.75 14.1668 1.75C16.3645 1.75 18.1668 3.55228 18.1668 5.75C18.1668 6.69912 17.7265 7.74187 16.9281 8.83051C16.1374 9.90876 15.0613 10.942 13.9503 11.851C12.8441 12.7561 11.7329 13.5141 10.8956 14.047C10.539 14.2739 10.2338 14.4589 10.002 14.5959C9.77001 14.4578 9.46429 14.2713 9.10701 14.0426C8.26934 13.5063 7.15774 12.7442 6.05112 11.8363C4.93954 10.9243 3.86287 9.88934 3.07172 8.81229C2.27238 7.72409 1.8335 6.68707 1.8335 5.75C1.8335 3.55228 3.63578 1.75 5.8335 1.75C7.24335 1.75 8.466 2.4518 9.1565 3.53688Z" stroke="black" stroke-opacity="0.6" stroke-width="2"/>
</svg>
