<svg width="19" height="22" viewBox="0 0 19 22" fill="none" xmlns="http://www.w3.org/2000/svg">
<path d="M9.5 22C9.5 22 19 14.1818 19 8.25C19 6.06196 17.9991 3.96354 16.2175 2.41637C14.4359 0.869194 12.0196 0 9.5 0C6.98044 0 4.56408 0.869194 2.78249 2.41637C1.00089 3.96354 3.75443e-08 6.06196 0 8.25C0 14.1818 9.5 22 9.5 22ZM9.5 12.375C8.24022 12.375 7.03204 11.9404 6.14124 11.1668C5.25045 10.3932 4.75 9.34402 4.75 8.25C4.75 7.15598 5.25045 6.10677 6.14124 5.33318C7.03204 4.5596 8.24022 4.125 9.5 4.125C10.7598 4.125 11.968 4.5596 12.8588 5.33318C13.7496 6.10677 14.25 7.15598 14.25 8.25C14.25 9.34402 13.7496 10.3932 12.8588 11.1668C11.968 11.9404 10.7598 12.375 9.5 12.375Z" fill="#112B66"/>
</svg>
