<svg width="30" height="30" viewBox="0 0 30 30" fill="none" xmlns="http://www.w3.org/2000/svg">
<path d="M15 19.5C16.1935 19.5 17.3381 19.0259 18.182 18.182C19.0259 17.3381 19.5 16.1935 19.5 15V7.5C19.5 6.30653 19.0259 5.16193 18.182 4.31802C17.3381 3.47411 16.1935 3 15 3C13.8065 3 12.6619 3.47411 11.818 4.31802C10.9741 5.16193 10.5 6.30653 10.5 7.5V15C10.5 16.1935 10.9741 17.3381 11.818 18.182C12.6619 19.0259 13.8065 19.5 15 19.5ZM15 18C14.2044 18 13.4413 17.6839 12.8787 17.1213C12.3161 16.5587 12 15.7956 12 15V7.5C12 6.70435 12.3161 5.94129 12.8787 5.37868C13.4413 4.81607 14.2044 4.5 15 4.5C15.7956 4.5 16.5587 4.81607 17.1213 5.37868C17.6839 5.94129 18 6.70435 18 7.5V15C18 15.7956 17.6839 16.5587 17.1213 17.1213C16.5587 17.6839 15.7956 18 15 18Z" fill="#494949"/>
<path d="M7.5 14.25C7.69891 14.25 7.88968 14.329 8.03033 14.4697C8.17098 14.6103 8.25 14.8011 8.25 15C8.25 15.8864 8.42459 16.7642 8.76381 17.5831C9.10303 18.4021 9.60023 19.1462 10.227 19.773C10.8538 20.3998 11.5979 20.897 12.4169 21.2362C13.2358 21.5754 14.1136 21.75 15 21.75C15.8864 21.75 16.7642 21.5754 17.5831 21.2362C18.4021 20.897 19.1462 20.3998 19.773 19.773C20.3998 19.1462 20.897 18.4021 21.2362 17.5831C21.5754 16.7642 21.75 15.8864 21.75 15C21.75 14.8011 21.829 14.6103 21.9697 14.4697C22.1103 14.329 22.3011 14.25 22.5 14.25C22.6989 14.25 22.8897 14.329 23.0303 14.4697C23.171 14.6103 23.25 14.8011 23.25 15C23.2503 17.0584 22.4811 19.0426 21.0934 20.5629C19.7058 22.0832 17.7999 23.0299 15.75 23.217V26.25C15.75 26.4489 15.671 26.6397 15.5303 26.7803C15.3897 26.921 15.1989 27 15 27C14.8011 27 14.6103 26.921 14.4697 26.7803C14.329 26.6397 14.25 26.4489 14.25 26.25V23.217C12.2001 23.0299 10.2942 22.0832 8.90658 20.5629C7.51891 19.0426 6.74971 17.0584 6.75 15C6.75 14.8011 6.82902 14.6103 6.96967 14.4697C7.11032 14.329 7.30109 14.25 7.5 14.25Z" fill="#494949"/>
</svg>
