<svg width="20" height="17" viewBox="0 0 20 17" fill="none" xmlns="http://www.w3.org/2000/svg">
<path d="M3.75 4.375C3.75 4.20924 3.81585 4.05027 3.93306 3.93306C4.05027 3.81585 4.20924 3.75 4.375 3.75H13.125C13.2908 3.75 13.4497 3.81585 13.5669 3.93306C13.6842 4.05027 13.75 4.20924 13.75 4.375C13.75 4.54076 13.6842 4.69973 13.5669 4.81694C13.4497 4.93415 13.2908 5 13.125 5H4.375C4.20924 5 4.05027 4.93415 3.93306 4.81694C3.81585 4.69973 3.75 4.54076 3.75 4.375Z" fill="#424242"/>
<path d="M10.625 7.5C10.4592 7.5 10.3003 7.56585 10.1831 7.68306C10.0658 7.80027 10 7.95924 10 8.125C10 8.29076 10.0658 8.44973 10.1831 8.56694C10.3003 8.68415 10.4592 8.75 10.625 8.75H13.125C13.2908 8.75 13.4497 8.68415 13.5669 8.56694C13.6842 8.44973 13.75 8.29076 13.75 8.125C13.75 7.95924 13.6842 7.80027 13.5669 7.68306C13.4497 7.56585 13.2908 7.5 13.125 7.5H10.625Z" fill="#424242"/>
<path d="M10 11.875C10 11.7092 10.0658 11.5503 10.1831 11.4331C10.3003 11.3158 10.4592 11.25 10.625 11.25H13.125C13.2908 11.25 13.4497 11.3158 13.5669 11.4331C13.6842 11.5503 13.75 11.7092 13.75 11.875C13.75 12.0408 13.6842 12.1997 13.5669 12.3169C13.4497 12.4342 13.2908 12.5 13.125 12.5H10.625C10.4592 12.5 10.3003 12.4342 10.1831 12.3169C10.0658 12.1997 10 12.0408 10 11.875Z" fill="#424242"/>
<path d="M4.375 7.5C4.20924 7.5 4.05027 7.56585 3.93306 7.68306C3.81585 7.80027 3.75 7.95924 3.75 8.125V11.875C3.75 12.0408 3.81585 12.1997 3.93306 12.3169C4.05027 12.4342 4.20924 12.5 4.375 12.5H8.125C8.29076 12.5 8.44973 12.4342 8.56694 12.3169C8.68415 12.1997 8.75 12.0408 8.75 11.875V8.125C8.75 7.95924 8.68415 7.80027 8.56694 7.68306C8.44973 7.56585 8.29076 7.5 8.125 7.5H4.375ZM5 11.25V8.75H7.5V11.25H5Z" fill="#424242"/>
<path d="M0 2.5C0 1.83696 0.263392 1.20107 0.732233 0.732233C1.20107 0.263392 1.83696 0 2.5 0H15C15.663 0 16.2989 0.263392 16.7678 0.732233C17.2366 1.20107 17.5 1.83696 17.5 2.5V3.75C18.163 3.75 18.7989 4.01339 19.2678 4.48223C19.7366 4.95107 20 5.58696 20 6.25V13.125C20 13.9538 19.6708 14.7487 19.0847 15.3347C18.4987 15.9208 17.7038 16.25 16.875 16.25H3.125C2.2962 16.25 1.50134 15.9208 0.915291 15.3347C0.32924 14.7487 0 13.9538 0 13.125V2.5ZM16.25 2.5C16.25 2.16848 16.1183 1.85054 15.8839 1.61612C15.6495 1.3817 15.3315 1.25 15 1.25H2.5C2.16848 1.25 1.85054 1.3817 1.61612 1.61612C1.3817 1.85054 1.25 2.16848 1.25 2.5V13.125C1.25 13.6223 1.44754 14.0992 1.79917 14.4508C2.15081 14.8025 2.62772 15 3.125 15H16.875C17.3723 15 17.8492 14.8025 18.2008 14.4508C18.5525 14.0992 18.75 13.6223 18.75 13.125V6.25C18.75 5.91848 18.6183 5.60054 18.3839 5.36612C18.1495 5.1317 17.8315 5 17.5 5V13.125C17.5 13.2908 17.4342 13.4497 17.3169 13.5669C17.1997 13.6842 17.0408 13.75 16.875 13.75C16.7092 13.75 16.5503 13.6842 16.4331 13.5669C16.3158 13.4497 16.25 13.2908 16.25 13.125V2.5Z" fill="#424242"/>
</svg>
