<svg width="20" height="20" viewBox="0 0 20 20" fill="none" xmlns="http://www.w3.org/2000/svg">
<path fill-rule="evenodd" clip-rule="evenodd" d="M11.5874 5.2244C11.2756 5.44058 10.9239 5.59248 10.5527 5.67126C10.1816 5.75004 9.79851 5.75412 9.42579 5.68325C9.05308 5.61238 8.6982 5.46799 8.38189 5.2585C8.06558 5.04901 7.79415 4.77861 7.58346 4.4631C7.37277 4.14758 7.22703 3.79326 7.15474 3.42082C7.08246 3.04837 7.08508 2.66526 7.16245 2.29384C7.23982 1.92241 7.39039 1.57012 7.60537 1.25751C7.82036 0.944909 8.09545 0.678251 8.4146 0.473104C9.0447 0.0569133 9.81395 -0.0928962 10.5542 0.0564225C11.2944 0.205741 11.9454 0.642043 12.3649 1.26995C12.7844 1.89787 12.9383 2.66632 12.7928 3.40732C12.6474 4.14833 12.2145 4.80163 11.5888 5.2244H11.5874ZM10.7945 1.66164C10.639 1.54973 10.4625 1.47026 10.2755 1.42796C10.0886 1.38567 9.89509 1.38143 9.7065 1.41547C9.5179 1.44952 9.33808 1.52117 9.17775 1.62616C9.01742 1.73114 8.87984 1.86731 8.77323 2.02657C8.66661 2.18582 8.59313 2.3649 8.55716 2.55314C8.52118 2.74138 8.52346 2.93493 8.56384 3.12227C8.60422 3.30962 8.68188 3.48692 8.7922 3.64363C8.90253 3.80034 9.04325 3.93324 9.206 4.03444C9.52044 4.22545 9.89646 4.28778 10.2557 4.20845C10.615 4.12911 10.9298 3.91423 11.1345 3.60856C11.3393 3.3029 11.4182 2.93002 11.3549 2.5676C11.2915 2.20518 11.0908 1.88118 10.7945 1.66307V1.66164ZM14.523 1.7045C14.935 1.42737 15.4308 1.30256 15.9249 1.35158C16.419 1.40061 16.8805 1.62038 17.2301 1.97306C17.4791 2.22413 17.6628 2.53247 17.7649 2.87104C17.8671 3.20962 17.8846 3.56808 17.8159 3.91499C17.7472 4.2619 17.5944 4.58666 17.371 4.86079C17.1476 5.13491 16.8603 5.35002 16.5344 5.48725C16.1429 5.65092 15.7115 5.69403 15.2954 5.61107C14.8793 5.5281 14.4975 5.32284 14.1987 5.02155C13.9742 4.79587 13.8023 4.52334 13.6954 4.22348C13.5885 3.92361 13.5492 3.60382 13.5803 3.287C13.6115 2.97017 13.7122 2.66414 13.8755 2.39081C14.0387 2.11748 14.2603 1.88361 14.5244 1.70593L14.523 1.7045ZM15.2087 4.00444C15.3428 4.13799 15.5245 4.21279 15.7138 4.21239C15.8075 4.21219 15.9003 4.19353 15.9868 4.15749C16.0733 4.12144 16.1518 4.0687 16.218 4.00229C16.2841 3.93588 16.3365 3.8571 16.3722 3.77044C16.4078 3.68378 16.4261 3.59094 16.4259 3.49722C16.4257 3.4035 16.4071 3.31074 16.371 3.22423C16.335 3.13772 16.2822 3.05916 16.2158 2.99304C16.0828 2.85927 15.903 2.78244 15.7144 2.77876C15.6202 2.77856 15.5269 2.79705 15.4398 2.83315C15.3528 2.86924 15.2738 2.92223 15.2074 2.98905C15.141 3.05587 15.0885 3.13519 15.0529 3.22243C15.0173 3.30967 14.9994 3.4031 15.0001 3.49731C15.0006 3.68756 15.0754 3.87008 15.2087 4.00587V4.00444ZM3.12903 16.4012H5.71467V17.8369H3.12903C2.67639 17.8328 2.24384 17.6494 1.9262 17.3269C1.60734 17.0033 1.42875 16.567 1.42907 16.1127V13.527C1.23674 13.5206 1.0477 13.4753 0.873382 13.3937C0.699059 13.3122 0.543063 13.1962 0.414813 13.0528C0.278536 12.9147 0.171586 12.7505 0.100392 12.5701C0.0291988 12.3897 -0.00476682 12.1967 0.000538098 12.0028V8.88573C0.0048237 8.21147 0.271959 7.5672 0.743375 7.08864C1.21336 6.61579 1.84906 6.3458 2.51476 6.34152H5.14326C4.78871 6.76375 4.52164 7.25225 4.35756 7.77862H2.51476C2.22482 7.78693 1.94896 7.90545 1.74335 8.11004C1.54139 8.31769 1.4286 8.59607 1.42907 8.88573V12.0742H2.8576V16.1113C2.85429 16.1502 2.85891 16.1894 2.87119 16.2264C2.88347 16.2635 2.90315 16.2977 2.92903 16.327C2.98646 16.3713 3.05648 16.3963 3.12903 16.3984V16.4012ZM13.5573 7.09007C13.3236 6.85404 13.0455 6.66654 12.739 6.53832C12.4326 6.41011 12.1038 6.34371 11.7716 6.34294H8.22889C7.56293 6.34827 6.92612 6.61686 6.45751 7.09007C5.98609 7.56863 5.71896 8.21289 5.71467 8.88716V13.427C5.71265 13.8168 5.86104 14.1924 6.12894 14.4756C6.25735 14.6189 6.41338 14.7347 6.58767 14.8162C6.76196 14.8977 6.95092 14.9432 7.1432 14.9499V18.2683C7.14187 18.4948 7.18535 18.7194 7.27116 18.929C7.35697 19.1386 7.48341 19.3292 7.64319 19.4897C7.90033 19.7297 8.2246 19.8854 8.57174 19.9354H11.4288C11.8306 19.8827 12.1987 19.6833 12.4624 19.3755C12.7261 19.0678 12.8668 18.6735 12.8573 18.2683V14.9484C13.0497 14.942 13.2387 14.8967 13.413 14.8151C13.5873 14.7336 13.7433 14.6176 13.8716 14.4742C14.0078 14.3363 14.1147 14.1724 14.1858 13.9922C14.257 13.812 14.2911 13.6193 14.2859 13.4256V8.88573C14.2869 8.21458 14.0254 7.56963 13.5573 7.08864V7.09007ZM12.8573 13.497H11.4288V18.2683C11.4274 18.3436 11.3967 18.4154 11.3431 18.4683C11.3187 18.4972 11.2879 18.52 11.2532 18.5348C11.2185 18.5497 11.1808 18.5563 11.1431 18.554H8.84316C8.7685 18.5506 8.69784 18.5193 8.64499 18.4665C8.59215 18.4137 8.56093 18.343 8.55745 18.2683V13.497H7.1432V8.88573C7.1432 8.59574 7.25606 8.31718 7.45748 8.11004C7.66309 7.90545 7.93895 7.78693 8.22889 7.77862H11.7716C11.9881 7.78244 12.1986 7.84936 12.3775 7.97116C12.5564 8.09297 12.6959 8.26437 12.7788 8.46432C12.8332 8.59804 12.8599 8.7414 12.8573 8.88573V13.497V13.497ZM16.8715 17.8355H14.2859V16.3998H16.8572C16.9298 16.3978 16.9998 16.3728 17.0572 16.3284C17.086 16.3003 17.1085 16.2664 17.1233 16.229C17.138 16.1916 17.1447 16.1514 17.1429 16.1113V12.0742H18.5715V8.88573C18.5719 8.59607 18.4592 8.31769 18.2572 8.11004C18.0516 7.90545 17.7757 7.78693 17.4858 7.77862H15.643C15.479 7.25222 15.2119 6.76371 14.8573 6.34152H17.4858C18.1516 6.34762 18.7881 6.61608 19.2572 7.08864C19.7286 7.5672 19.9957 8.21147 20 8.88573V12.0028C20 12.3928 19.8529 12.7671 19.5872 13.0499C19.3214 13.3342 18.9586 13.5042 18.5715 13.5256V16.1113C18.5715 16.567 18.3929 17.0027 18.0743 17.3255C17.7567 17.648 17.3242 17.8314 16.8715 17.8355V17.8355ZM4.28614 1.34165C3.86105 1.34116 3.44549 1.46762 3.09274 1.70483C2.73998 1.94203 2.4661 2.27918 2.30619 2.67304C2.14481 3.06677 2.10292 3.4993 2.18573 3.91669C2.26855 4.33407 2.47241 4.71784 2.77189 5.02012C3.07126 5.32206 3.45385 5.5279 3.87077 5.61136C4.2877 5.69481 4.72004 5.65208 5.11256 5.48863C5.50508 5.32518 5.83997 5.04843 6.07445 4.69373C6.30892 4.33903 6.43234 3.92249 6.42894 3.49731C6.42894 2.92589 6.20323 2.37734 5.80038 1.97306C5.60202 1.77326 5.36613 1.61462 5.10626 1.50626C4.8464 1.3979 4.56769 1.34196 4.28614 1.34165V1.34165ZM4.28614 4.21586C4.19192 4.21605 4.09861 4.19757 4.01158 4.16147C3.92455 4.12537 3.84555 4.07238 3.77913 4.00557C3.71271 3.93875 3.66019 3.85942 3.62462 3.77219C3.58904 3.68495 3.57112 3.59152 3.57187 3.49731C3.57224 3.30759 3.64748 3.12569 3.78123 2.99114C3.91497 2.85658 4.09643 2.78026 4.28614 2.77876C4.47527 2.78209 4.65566 2.85899 4.78902 2.99315C4.92238 3.12731 4.9982 3.30816 5.0004 3.49731C5.00003 3.68702 4.9248 3.86893 4.79105 4.00348C4.6573 4.13803 4.47585 4.21435 4.28614 4.21586V4.21586Z" fill="#424242"/>
</svg>
