<svg width="24" height="24" viewBox="0 0 24 24" fill="none" xmlns="http://www.w3.org/2000/svg">
<path d="M23.59 3.47145C23.3353 2.77081 22.9303 2.13452 22.4033 1.60736C21.8764 1.08019 21.2403 0.674959 20.54 0.420175C19.23 2.98147e-08 18.04 0 15.62 0H8.36C5.96 0 4.75 0 3.46 0.400167C2.75864 0.656012 2.12198 1.06278 1.59496 1.59174C1.06795 2.1207 0.663442 2.75896 0.41 3.46144C0 4.76198 0 5.96248 0 8.36348V15.6365C0 18.0475 0 19.238 0.4 20.5386C0.654678 21.2392 1.05974 21.8755 1.58669 22.4026C2.11363 22.9298 2.74966 23.335 3.45 23.5898C4.75 24 5.95 24 8.35 24H15.63C18.04 24 19.24 24 20.53 23.5998C21.2332 23.3452 21.8718 22.939 22.4007 22.41C22.9295 21.881 23.3355 21.2421 23.59 20.5386C24 19.238 24 18.0375 24 15.6365V8.38349C24 5.97249 24 4.77199 23.59 3.47145ZM17.42 8.10338L16.49 9.03376C16.3994 9.1181 16.2807 9.16581 16.1569 9.16766C16.0332 9.16951 15.9131 9.12536 15.82 9.04377C14.9193 8.28282 13.7789 7.86471 12.6 7.86328C11.63 7.86328 10.66 8.18341 10.66 9.07378C10.66 9.97415 11.7 10.2743 12.9 10.7245C15 11.4248 16.74 12.3051 16.74 14.366C16.74 16.6069 15 18.1476 12.16 18.3176L11.9 19.5181C11.877 19.6285 11.8167 19.7275 11.7293 19.7985C11.6419 19.8696 11.5326 19.9084 11.42 19.9083H9.63L9.54 19.8983C9.41188 19.8695 9.3002 19.7915 9.2291 19.6811C9.158 19.5706 9.13318 19.4366 9.16 19.308L9.44 18.0375C8.36222 17.7672 7.37104 17.2267 6.56 16.4669V16.4569C6.51525 16.4122 6.47975 16.3592 6.45552 16.3009C6.43129 16.2425 6.41882 16.1799 6.41882 16.1167C6.41882 16.0535 6.43129 15.9909 6.45552 15.9326C6.47975 15.8742 6.51525 15.8212 6.56 15.7766L7.56 14.8062C7.65081 14.7211 7.77057 14.6737 7.895 14.6737C8.01943 14.6737 8.13919 14.7211 8.23 14.8062C9.14 15.6665 10.36 16.1467 11.62 16.1267C12.92 16.1267 13.79 15.5765 13.79 14.7061C13.79 13.8358 12.91 13.6057 11.25 12.9854C9.49 12.3551 7.82 11.4648 7.82 9.38391C7.82 6.9629 9.83 5.78241 12.21 5.67236L12.46 4.44185C12.4833 4.33249 12.5439 4.23468 12.6316 4.16528C12.7192 4.09588 12.8283 4.05924 12.94 4.06169H14.72L14.82 4.0717C15.08 4.13172 15.25 4.38183 15.19 4.64193L14.92 6.0125C15.82 6.31263 16.67 6.78283 17.4 7.40308L17.42 7.42309C17.61 7.62318 17.61 7.9233 17.42 8.10338Z" fill="#0C54A1"/>
</svg>
