<svg width="18" height="18" viewBox="0 0 18 18" fill="none" xmlns="http://www.w3.org/2000/svg">
<path fill-rule="evenodd" clip-rule="evenodd" d="M10.3887 4.82874C10.1159 5.0179 9.80815 5.15082 9.48341 5.21975C9.15866 5.28869 8.82344 5.29225 8.4973 5.23024C8.17117 5.16823 7.86065 5.04188 7.58386 4.85857C7.30708 4.67526 7.06958 4.43866 6.88522 4.16258C6.70086 3.8865 6.57333 3.57646 6.51008 3.25056C6.44683 2.92466 6.44912 2.58943 6.51682 2.26443C6.58452 1.93942 6.71628 1.63116 6.90439 1.35762C7.09251 1.08408 7.33322 0.850749 7.61248 0.67124C8.16384 0.307064 8.83695 0.175977 9.48467 0.306634C10.1324 0.437292 10.702 0.819066 11.0691 1.3685C11.4362 1.91794 11.5708 2.59035 11.4435 3.23875C11.3163 3.88715 10.9375 4.4588 10.39 4.82874H10.3887ZM9.69498 1.71124C9.55885 1.61331 9.40441 1.54377 9.24085 1.50677C9.07729 1.46976 8.90795 1.46604 8.74293 1.49584C8.5779 1.52563 8.42055 1.58833 8.28026 1.68019C8.13996 1.77205 8.01959 1.89121 7.92629 2.03056C7.833 2.16991 7.7687 2.3266 7.73723 2.49132C7.70575 2.65603 7.70774 2.8254 7.74307 2.98933C7.7784 3.15326 7.84636 3.3084 7.9429 3.44552C8.03943 3.58265 8.16257 3.69894 8.30498 3.78749C8.58012 3.95463 8.90914 4.00917 9.2235 3.93975C9.53786 3.87033 9.81331 3.68231 9.99248 3.41484C10.1716 3.14738 10.2407 2.8211 10.1853 2.50398C10.1299 2.18685 9.95424 1.90334 9.69498 1.71249V1.71124ZM12.9575 1.74874C13.318 1.50624 13.7518 1.39704 14.1842 1.43993C14.6165 1.48283 15.0204 1.67513 15.3262 1.98374C15.5442 2.20343 15.7049 2.47323 15.7942 2.76949C15.8836 3.06575 15.8989 3.37942 15.8388 3.68297C15.7787 3.98653 15.6451 4.2707 15.4496 4.51057C15.2541 4.75043 15.0027 4.93866 14.7175 5.05874C14.375 5.20195 13.9975 5.23968 13.6334 5.16708C13.2693 5.09449 12.9351 4.91487 12.6737 4.65124C12.4773 4.45376 12.3269 4.21529 12.2333 3.95291C12.1398 3.69052 12.1054 3.41069 12.1326 3.13346C12.1599 2.85623 12.248 2.58845 12.3909 2.34928C12.5337 2.11011 12.7276 1.90546 12.9587 1.74999L12.9575 1.74874ZM13.5575 3.76124C13.6748 3.8781 13.8338 3.94356 13.9994 3.9432C14.0814 3.94303 14.1626 3.92671 14.2383 3.89516C14.314 3.86362 14.3827 3.81748 14.4406 3.75937C14.4985 3.70126 14.5443 3.63232 14.5755 3.55649C14.6068 3.48066 14.6227 3.39942 14.6226 3.31741C14.6224 3.23541 14.6061 3.15424 14.5745 3.07854C14.543 3.00285 14.4968 2.9341 14.4387 2.87624C14.3223 2.75919 14.165 2.69196 14 2.68874C13.9175 2.68857 13.8359 2.70475 13.7597 2.73633C13.6836 2.76792 13.6145 2.81428 13.5563 2.87275C13.4982 2.93122 13.4523 3.00063 13.4211 3.07697C13.39 3.1533 13.3743 3.23505 13.375 3.31749C13.3754 3.48396 13.4409 3.64367 13.5575 3.76249V3.76124ZM2.98748 14.6087H5.24998V15.865H2.98748C2.59141 15.8614 2.21292 15.7009 1.93498 15.4187C1.65597 15.1355 1.4997 14.7538 1.49998 14.3562V12.0937C1.33169 12.0881 1.16628 12.0484 1.01374 11.9771C0.861205 11.9058 0.724704 11.8043 0.612483 11.6787C0.493238 11.558 0.399653 11.4143 0.337357 11.2564C0.275061 11.0985 0.245341 10.9297 0.249983 10.76V8.03249C0.253733 7.44249 0.487483 6.87874 0.899983 6.45999C1.31123 6.04624 1.86748 5.80999 2.44998 5.80624H4.74998C4.43975 6.1757 4.20605 6.60316 4.06248 7.06374H2.44998C2.19628 7.07101 1.9549 7.17472 1.77498 7.35374C1.59826 7.53544 1.49957 7.77902 1.49998 8.03249V10.8225H2.74998V14.355C2.74708 14.389 2.75113 14.4233 2.76187 14.4558C2.77262 14.4882 2.78983 14.5181 2.81248 14.5437C2.86273 14.5826 2.92401 14.6045 2.98748 14.6062V14.6087ZM12.1125 6.46124C11.9079 6.25471 11.6646 6.09064 11.3965 5.97845C11.1283 5.86626 10.8407 5.80816 10.55 5.80749H7.44998C6.86725 5.81215 6.31003 6.04717 5.89998 6.46124C5.48748 6.87999 5.25373 7.44374 5.24998 8.03374V12.0062C5.24822 12.3473 5.37806 12.676 5.61248 12.9237C5.72484 13.0491 5.86137 13.1505 6.01388 13.2218C6.16639 13.2931 6.33173 13.3329 6.49998 13.3387V16.2425C6.49881 16.4407 6.53687 16.6372 6.61195 16.8206C6.68704 17.004 6.79767 17.1708 6.93748 17.3112C7.16248 17.5212 7.44623 17.6575 7.74998 17.7012H10.25C10.6016 17.6551 10.9237 17.4806 11.1544 17.2113C11.3852 16.9421 11.5082 16.597 11.5 16.2425V13.3375C11.6683 13.3319 11.8337 13.2922 11.9862 13.2209C12.1388 13.1495 12.2753 13.048 12.3875 12.9225C12.5066 12.8019 12.6002 12.6584 12.6625 12.5008C12.7248 12.3431 12.7545 12.1745 12.75 12.005V8.03249C12.7508 7.44521 12.5221 6.88087 12.1125 6.45999V6.46124ZM11.5 12.0675H10.25V16.2425C10.2488 16.3084 10.2219 16.3712 10.175 16.4175C10.1537 16.4427 10.1267 16.4627 10.0964 16.4757C10.066 16.4887 10.033 16.4945 9.99998 16.4925H7.98748C7.92216 16.4894 7.86032 16.4621 7.81408 16.4159C7.76784 16.3696 7.74053 16.3078 7.73748 16.2425V12.0675H6.49998V8.03249C6.49998 7.77874 6.59873 7.53499 6.77498 7.35374C6.9549 7.17472 7.19628 7.07101 7.44998 7.06374H10.55C10.7393 7.06708 10.9236 7.12564 11.0802 7.23222C11.2367 7.33881 11.3587 7.48878 11.4312 7.66374C11.4788 7.78075 11.5022 7.90619 11.5 8.03249V12.0675ZM15.0125 15.8637H12.75V14.6075H15C15.0635 14.6057 15.1247 14.5838 15.175 14.545C15.2002 14.5204 15.2199 14.4907 15.2328 14.458C15.2457 14.4253 15.2516 14.3902 15.25 14.355V10.8225H16.5V8.03249C16.5004 7.77902 16.4017 7.53544 16.225 7.35374C16.0451 7.17472 15.8037 7.07101 15.55 7.06374H13.9375C13.794 6.60313 13.5603 6.17567 13.25 5.80624H15.55C16.1326 5.81158 16.6895 6.04649 17.1 6.45999C17.5125 6.87874 17.7462 7.44249 17.75 8.03249V10.76C17.75 11.1012 17.6212 11.4287 17.3887 11.6762C17.1562 11.925 16.8387 12.0737 16.5 12.0925V14.355C16.5 14.7537 16.3437 15.135 16.065 15.4175C15.787 15.6997 15.4086 15.8602 15.0125 15.8637ZM3.99998 1.43124C3.62802 1.43081 3.2644 1.54146 2.95573 1.74903C2.64706 1.95659 2.40741 2.2516 2.26748 2.59624C2.12627 2.94076 2.08961 3.31924 2.16208 3.68446C2.23454 4.04968 2.41293 4.38548 2.67498 4.64999C2.93694 4.91419 3.27171 5.09431 3.63653 5.16733C4.00135 5.24035 4.37965 5.20297 4.72312 5.05994C5.06659 4.91692 5.35962 4.67476 5.5648 4.36439C5.76997 4.05402 5.87796 3.68953 5.87498 3.31749C5.87498 2.81749 5.67748 2.33749 5.32498 1.98374C5.15141 1.80891 4.945 1.67009 4.71761 1.57528C4.49023 1.48046 4.24635 1.43151 3.99998 1.43124ZM3.99998 3.94624C3.91754 3.94641 3.83589 3.93023 3.75974 3.89865C3.68359 3.86706 3.61446 3.8207 3.55634 3.76223C3.49822 3.70376 3.45227 3.63435 3.42114 3.55801C3.39001 3.48168 3.37432 3.39993 3.37498 3.31749C3.37531 3.15148 3.44114 2.99231 3.55817 2.87458C3.67521 2.75684 3.83398 2.69006 3.99998 2.68874C4.16548 2.69166 4.32332 2.75895 4.44002 2.87634C4.55671 2.99373 4.62306 3.15198 4.62498 3.31749C4.62466 3.4835 4.55883 3.64267 4.44179 3.7604C4.32476 3.87814 4.16599 3.94492 3.99998 3.94624Z" fill="black" fill-opacity="0.6"/>
</svg>
