<svg width="21" height="21" viewBox="0 0 21 21" fill="none" xmlns="http://www.w3.org/2000/svg">
<path d="M14.4954 19.2491H14.5199C14.9819 19.2491 15.4186 19.0671 15.7493 18.7364L18.1223 16.3634C18.2036 16.2822 18.2682 16.1858 18.3122 16.0796C18.3562 15.9735 18.3789 15.8597 18.3789 15.7448C18.3789 15.6298 18.3562 15.516 18.3122 15.4099C18.2682 15.3037 18.2036 15.2073 18.1223 15.1261L14.6223 11.6261C14.5411 11.5448 14.4447 11.4803 14.3385 11.4363C14.2324 11.3922 14.1186 11.3696 14.0037 11.3696C13.8888 11.3696 13.775 11.3922 13.6688 11.4363C13.5627 11.4803 13.4663 11.5448 13.3851 11.6261L11.9903 13.0209C11.3437 12.8284 10.1371 12.3909 9.37232 11.6261C8.60757 10.8614 8.17006 9.65475 7.97756 9.00813L9.37232 7.61338C9.45364 7.53219 9.51816 7.43576 9.56218 7.32961C9.60621 7.22346 9.62887 7.10967 9.62887 6.99475C9.62887 6.87983 9.60621 6.76604 9.56218 6.65989C9.51816 6.55374 9.45364 6.45731 9.37232 6.37613L5.87231 2.87612C5.70504 2.71823 5.48372 2.63028 5.25369 2.63028C5.02366 2.63028 4.80234 2.71823 4.63506 2.87612L2.26294 5.24913C1.93044 5.58163 1.74319 6.03838 1.75019 6.50475C1.77031 7.75075 2.10019 12.0785 5.51094 15.4893C8.92169 18.9 13.2494 19.229 14.4954 19.2491ZM5.25456 4.732L7.51731 6.99475L6.38594 8.12613C6.28298 8.2288 6.20735 8.3556 6.16593 8.49498C6.12452 8.63436 6.11863 8.78189 6.14881 8.92413C6.16981 9.02475 6.68344 11.4109 8.13594 12.8634C9.58844 14.3159 11.9746 14.8295 12.0752 14.8505C12.2174 14.8808 12.365 14.875 12.5044 14.8336C12.6438 14.7922 12.7706 14.7165 12.8732 14.6134L14.0046 13.482L16.2673 15.7448L14.5121 17.4991C13.4201 17.4808 9.68382 17.1876 6.74819 14.2511C3.80294 11.3059 3.51769 7.5565 3.50019 6.48638L5.25456 4.732ZM17.4993 9.62413H19.2493C19.2493 5.13537 15.8604 1.75 11.3656 1.75V3.5C14.9198 3.5 17.4993 6.07512 17.4993 9.62413Z" fill="#18A10C"/>
<path d="M11.374 7C13.2141 7 13.999 7.78488 13.999 9.625H15.749C15.749 6.80313 14.1959 5.25 11.374 5.25V7Z" fill="#18A10C"/>
</svg>
