<svg width="23" height="23" viewBox="0 0 23 23" fill="none" xmlns="http://www.w3.org/2000/svg">
<g clip-path="url(#clip0_4048_743)">
<path fill-rule="evenodd" clip-rule="evenodd" d="M15.3346 8.63021C15.3346 9.64687 14.9308 10.6219 14.2119 11.3408C13.493 12.0597 12.518 12.4635 11.5013 12.4635C10.4846 12.4635 9.50962 12.0597 8.79073 11.3408C8.07184 10.6219 7.66797 9.64687 7.66797 8.63021C7.66797 7.61355 8.07184 6.63852 8.79073 5.91963C9.50962 5.20074 10.4846 4.79688 11.5013 4.79688C12.518 4.79688 13.493 5.20074 14.2119 5.91963C14.9308 6.63852 15.3346 7.61355 15.3346 8.63021V8.63021ZM13.418 8.63021C13.418 9.13854 13.216 9.62605 12.8566 9.9855C12.4971 10.3449 12.0096 10.5469 11.5013 10.5469C10.993 10.5469 10.5055 10.3449 10.146 9.9855C9.78657 9.62605 9.58464 9.13854 9.58464 8.63021C9.58464 8.12188 9.78657 7.63437 10.146 7.27492C10.5055 6.91548 10.993 6.71354 11.5013 6.71354C12.0096 6.71354 12.4971 6.91548 12.8566 7.27492C13.216 7.63437 13.418 8.12188 13.418 8.63021V8.63021Z" fill="#142A65"/>
<path fill-rule="evenodd" clip-rule="evenodd" d="M11.5007 0.960938C5.67878 0.960938 0.958984 5.68073 0.958984 11.5026C0.958984 17.3245 5.67878 22.0443 11.5007 22.0443C17.3225 22.0443 22.0423 17.3245 22.0423 11.5026C22.0423 5.68073 17.3225 0.960938 11.5007 0.960938ZM2.87565 11.5026C2.87565 13.5055 3.55894 15.3494 4.70415 16.8137C5.50841 15.7575 6.54597 14.9016 7.73577 14.3127C8.92558 13.7239 10.2354 13.4181 11.5629 13.4193C12.8733 13.418 14.1667 13.7159 15.3445 14.2902C16.5223 14.8645 17.5534 15.7 18.3594 16.7332C19.1898 15.6441 19.7489 14.373 19.9904 13.025C20.232 11.677 20.1491 10.2908 19.7485 8.98121C19.348 7.6716 18.6414 6.47619 17.6872 5.49389C16.7329 4.51159 15.5585 3.77064 14.261 3.33234C12.9636 2.89405 11.5804 2.77101 10.2259 2.97341C8.87148 3.17581 7.5847 3.69783 6.47205 4.49628C5.35941 5.29473 4.45289 6.34665 3.8275 7.565C3.2021 8.78335 2.87582 10.1331 2.87565 11.5026V11.5026ZM11.5007 20.1276C9.52069 20.1306 7.60049 19.4494 6.06498 18.1994C6.68304 17.3146 7.50568 16.5922 8.46292 16.0937C9.42015 15.5951 10.4837 15.3352 11.5629 15.3359C12.6288 15.3351 13.6794 15.5885 14.6276 16.0752C15.5758 16.5619 16.3943 17.2678 17.0149 18.1343C15.4675 19.4249 13.5156 20.1304 11.5007 20.1276V20.1276Z" fill="#142A65"/>
</g>
<defs>
<clipPath id="clip0_4048_743">
<rect width="23" height="23" fill="white"/>
</clipPath>
</defs>
</svg>
