<svg width="20" height="20" viewBox="0 0 20 20" fill="none" xmlns="http://www.w3.org/2000/svg">
<path fill-rule="evenodd" clip-rule="evenodd" d="M13.3327 7.50001C13.3327 8.38406 12.9815 9.23191 12.3564 9.85703C11.7313 10.4822 10.8834 10.8333 9.99935 10.8333C9.11529 10.8333 8.26745 10.4822 7.64233 9.85703C7.0172 9.23191 6.66602 8.38406 6.66602 7.50001C6.66602 6.61595 7.0172 5.7681 7.64233 5.14298C8.26745 4.51786 9.11529 4.16667 9.99935 4.16667C10.8834 4.16667 11.7313 4.51786 12.3564 5.14298C12.9815 5.7681 13.3327 6.61595 13.3327 7.50001ZM11.666 7.50001C11.666 7.94203 11.4904 8.36596 11.1779 8.67852C10.8653 8.99108 10.4414 9.16667 9.99935 9.16667C9.55732 9.16667 9.1334 8.99108 8.82084 8.67852C8.50828 8.36596 8.33268 7.94203 8.33268 7.50001C8.33268 7.05798 8.50828 6.63405 8.82084 6.32149C9.1334 6.00893 9.55732 5.83334 9.99935 5.83334C10.4414 5.83334 10.8653 6.00893 11.1779 6.32149C11.4904 6.63405 11.666 7.05798 11.666 7.50001Z" fill="black" fill-opacity="0.6"/>
<path fill-rule="evenodd" clip-rule="evenodd" d="M9.99967 0.833336C4.93717 0.833336 0.833008 4.9375 0.833008 10C0.833008 15.0625 4.93717 19.1667 9.99967 19.1667C15.0622 19.1667 19.1663 15.0625 19.1663 10C19.1663 4.9375 15.0622 0.833336 9.99967 0.833336ZM2.49967 10C2.49967 11.7417 3.09384 13.345 4.08967 14.6183C4.78903 13.6999 5.69126 12.9556 6.72587 12.4436C7.76048 11.9316 8.89946 11.6657 10.0538 11.6667C11.1933 11.6656 12.3179 11.9246 13.3421 12.424C14.3663 12.9234 15.263 13.6499 15.9638 14.5483C16.6859 13.6013 17.172 12.496 17.3821 11.3238C17.5921 10.1516 17.52 8.94628 17.1718 7.80749C16.8235 6.6687 16.209 5.62921 15.3792 4.77503C14.5495 3.92086 13.5282 3.27655 12.4 2.89543C11.2718 2.5143 10.069 2.40731 8.89122 2.58331C7.71344 2.75931 6.5945 3.21325 5.62698 3.90755C4.65946 4.60185 3.87118 5.51656 3.32737 6.576C2.78355 7.63544 2.49982 8.80914 2.49967 10ZM9.99967 17.5C8.27797 17.5026 6.60823 16.9103 5.27301 15.8233C5.81045 15.0539 6.52579 14.4258 7.35817 13.9922C8.19055 13.5587 9.11533 13.3327 10.0538 13.3333C10.9806 13.3326 11.8942 13.553 12.7188 13.9762C13.5433 14.3994 14.255 15.0132 14.7947 15.7667C13.4491 16.8889 11.7518 17.5025 9.99967 17.5Z" fill="black" fill-opacity="0.6"/>
</svg>
