<svg width="20" height="16" viewBox="0 0 20 16" fill="none" xmlns="http://www.w3.org/2000/svg">
<path fill-rule="evenodd" clip-rule="evenodd" d="M5.71493 13.5721C5.71493 13.3827 5.79018 13.201 5.92413 13.067C6.05808 12.9331 6.23975 12.8578 6.42918 12.8578H19.2857C19.4752 12.8578 19.6569 12.9331 19.7908 13.067C19.9247 13.201 20 13.3827 20 13.5721C20 13.7615 19.9247 13.9432 19.7908 14.0771C19.6569 14.2111 19.4752 14.2863 19.2857 14.2863H6.42918C6.23975 14.2863 6.05808 14.2111 5.92413 14.0771C5.79018 13.9432 5.71493 13.7615 5.71493 13.5721ZM5.71493 7.85806C5.71493 7.66863 5.79018 7.48696 5.92413 7.35301C6.05808 7.21906 6.23975 7.14381 6.42918 7.14381H19.2857C19.4752 7.14381 19.6569 7.21906 19.7908 7.35301C19.9247 7.48696 20 7.66863 20 7.85806C20 8.0475 19.9247 8.22917 19.7908 8.36312C19.6569 8.49707 19.4752 8.57232 19.2857 8.57232H6.42918C6.23975 8.57232 6.05808 8.49707 5.92413 8.36312C5.79018 8.22917 5.71493 8.0475 5.71493 7.85806ZM5.71493 2.14404C5.71493 1.95461 5.79018 1.77293 5.92413 1.63898C6.05808 1.50504 6.23975 1.42978 6.42918 1.42978H19.2857C19.4752 1.42978 19.6569 1.50504 19.7908 1.63898C19.9247 1.77293 20 1.95461 20 2.14404C20 2.33347 19.9247 2.51514 19.7908 2.64909C19.6569 2.78304 19.4752 2.85829 19.2857 2.85829H6.42918C6.23975 2.85829 6.05808 2.78304 5.92413 2.64909C5.79018 2.51514 5.71493 2.33347 5.71493 2.14404ZM4.07786 0.209839C4.14438 0.276187 4.19715 0.355005 4.23316 0.44178C4.26917 0.528555 4.2877 0.621581 4.2877 0.71553C4.2877 0.809479 4.26917 0.902506 4.23316 0.98928C4.19715 1.07606 4.14438 1.15487 4.07786 1.22122L1.9351 3.36398C1.86875 3.4305 1.78993 3.48327 1.70316 3.51928C1.61638 3.55529 1.52336 3.57382 1.42941 3.57382C1.33546 3.57382 1.24243 3.55529 1.15566 3.51928C1.06888 3.48327 0.990066 3.4305 0.923718 3.36398L0.209464 2.64973C0.143056 2.58332 0.0903779 2.50448 0.054438 2.41772C0.018498 2.33095 9.89561e-10 2.23795 0 2.14404C-9.89562e-10 2.05012 0.018498 1.95713 0.054438 1.87036C0.0903779 1.78359 0.143056 1.70475 0.209464 1.63835C0.275873 1.57194 0.354711 1.51926 0.441478 1.48332C0.528244 1.44738 0.62124 1.42888 0.715156 1.42888C0.809071 1.42888 0.902067 1.44738 0.988834 1.48332C1.0756 1.51926 1.15444 1.57194 1.22085 1.63835L1.42941 1.84834L3.06648 0.209839C3.13283 0.143323 3.21164 0.0905498 3.29842 0.0545423C3.38519 0.0185347 3.47822 0 3.57217 0C3.66612 0 3.75914 0.0185347 3.84592 0.0545423C3.93269 0.0905498 4.01151 0.143323 4.07786 0.209839V0.209839ZM4.07786 5.92387C4.14438 5.99021 4.19715 6.06903 4.23316 6.15581C4.26917 6.24258 4.2877 6.33561 4.2877 6.42956C4.2877 6.52351 4.26917 6.61653 4.23316 6.70331C4.19715 6.79008 4.14438 6.8689 4.07786 6.93525L1.9351 9.07801C1.86875 9.14453 1.78993 9.1973 1.70316 9.23331C1.61638 9.26931 1.52336 9.28785 1.42941 9.28785C1.33546 9.28785 1.24243 9.26931 1.15566 9.23331C1.06888 9.1973 0.990066 9.14453 0.923718 9.07801L0.209464 8.36376C0.0753466 8.22964 0 8.04774 0 7.85806C0 7.66839 0.0753466 7.48649 0.209464 7.35237C0.343582 7.21826 0.525485 7.14291 0.715156 7.14291C0.904827 7.14291 1.08673 7.21826 1.22085 7.35237L1.42941 7.56236L3.06648 5.92387C3.13283 5.85735 3.21164 5.80458 3.29842 5.76857C3.38519 5.73256 3.47822 5.71403 3.57217 5.71403C3.66612 5.71403 3.75914 5.73256 3.84592 5.76857C3.93269 5.80458 4.01151 5.85735 4.07786 5.92387V5.92387ZM4.07786 11.6379C4.14438 11.7042 4.19715 11.7831 4.23316 11.8698C4.26917 11.9566 4.2877 12.0496 4.2877 12.1436C4.2877 12.2375 4.26917 12.3306 4.23316 12.4173C4.19715 12.5041 4.14438 12.5829 4.07786 12.6493L1.9351 14.792C1.86875 14.8586 1.78993 14.9113 1.70316 14.9473C1.61638 14.9833 1.52336 15.0019 1.42941 15.0019C1.33546 15.0019 1.24243 14.9833 1.15566 14.9473C1.06888 14.9113 0.990066 14.8586 0.923718 14.792L0.209464 14.0778C0.0753466 13.9437 0 13.7618 0 13.5721C0 13.3824 0.0753466 13.2005 0.209464 13.0664C0.343582 12.9323 0.525485 12.8569 0.715156 12.8569C0.904827 12.8569 1.08673 12.9323 1.22085 13.0664L1.42941 13.2764L3.06648 11.6379C3.13283 11.5714 3.21164 11.5186 3.29842 11.4826C3.38519 11.4466 3.47822 11.4281 3.57217 11.4281C3.66612 11.4281 3.75914 11.4466 3.84592 11.4826C3.93269 11.5186 4.01151 11.5714 4.07786 11.6379V11.6379Z" fill="#424242"/>
</svg>
