<svg width="31" height="30" viewBox="0 0 31 30" fill="none" xmlns="http://www.w3.org/2000/svg">
<path d="M26.725 24.1125L22.475 19.875C23.8463 18.1281 24.5903 15.9708 24.5875 13.75C24.5875 11.7722 24.001 9.83879 22.9022 8.1943C21.8034 6.54981 20.2416 5.26809 18.4144 4.51121C16.5871 3.75433 14.5764 3.5563 12.6366 3.94215C10.6968 4.328 8.91499 5.28041 7.51646 6.67894C6.11794 8.07746 5.16553 9.85929 4.77968 11.7991C4.39382 13.7389 4.59186 15.7496 5.34873 17.5768C6.10561 19.4041 7.38733 20.9659 9.03183 22.0647C10.6763 23.1635 12.6097 23.75 14.5875 23.75C16.8083 23.7528 18.9656 23.0087 20.7125 21.6375L24.95 25.8875C25.0662 26.0047 25.2045 26.0977 25.3568 26.1611C25.5091 26.2246 25.6725 26.2573 25.8375 26.2573C26.0025 26.2573 26.1659 26.2246 26.3183 26.1611C26.4706 26.0977 26.6088 26.0047 26.725 25.8875C26.8422 25.7713 26.9352 25.633 26.9986 25.4807C27.0621 25.3284 27.0948 25.165 27.0948 25C27.0948 24.835 27.0621 24.6716 26.9986 24.5193C26.9352 24.367 26.8422 24.2287 26.725 24.1125ZM7.08753 13.75C7.08753 12.2666 7.5274 10.8166 8.35151 9.58323C9.17562 8.34986 10.347 7.38857 11.7174 6.82091C13.0878 6.25325 14.5958 6.10473 16.0507 6.39411C17.5056 6.6835 18.8419 7.39781 19.8908 8.4467C20.9397 9.4956 21.654 10.832 21.9434 12.2868C22.2328 13.7417 22.0843 15.2497 21.5166 16.6201C20.949 17.9906 19.9877 19.1619 18.7543 19.986C17.5209 20.8101 16.0709 21.25 14.5875 21.25C12.5984 21.25 10.6908 20.4598 9.28423 19.0533C7.87771 17.6468 7.08753 15.7391 7.08753 13.75Z" fill="#494949"/>
</svg>
