<svg width="20" height="20" viewBox="0 0 20 20" fill="none" xmlns="http://www.w3.org/2000/svg">
<path d="M10.8327 8.33333H2.49935C2.04102 8.33333 1.66602 8.70833 1.66602 9.16667C1.66602 9.625 2.04102 10 2.49935 10H10.8327C11.291 10 11.666 9.625 11.666 9.16667C11.666 8.70833 11.291 8.33333 10.8327 8.33333ZM10.8327 5H2.49935C2.04102 5 1.66602 5.375 1.66602 5.83333C1.66602 6.29167 2.04102 6.66667 2.49935 6.66667H10.8327C11.291 6.66667 11.666 6.29167 11.666 5.83333C11.666 5.375 11.291 5 10.8327 5ZM14.9993 11.6667V9.16667C14.9993 8.70833 14.6243 8.33333 14.166 8.33333C13.7077 8.33333 13.3327 8.70833 13.3327 9.16667V11.6667H10.8327C10.3743 11.6667 9.99935 12.0417 9.99935 12.5C9.99935 12.9583 10.3743 13.3333 10.8327 13.3333H13.3327V15.8333C13.3327 16.2917 13.7077 16.6667 14.166 16.6667C14.6243 16.6667 14.9993 16.2917 14.9993 15.8333V13.3333H17.4993C17.9577 13.3333 18.3327 12.9583 18.3327 12.5C18.3327 12.0417 17.9577 11.6667 17.4993 11.6667H14.9993ZM2.49935 13.3333H7.49935C7.95768 13.3333 8.33268 12.9583 8.33268 12.5C8.33268 12.0417 7.95768 11.6667 7.49935 11.6667H2.49935C2.04102 11.6667 1.66602 12.0417 1.66602 12.5C1.66602 12.9583 2.04102 13.3333 2.49935 13.3333Z" fill="#62656A"/>
</svg>
