<svg width="26" height="28" viewBox="0 0 26 28" fill="none" xmlns="http://www.w3.org/2000/svg">
<path d="M20.5625 17.75C19.8607 17.7535 19.1687 17.9146 18.5375 18.2212C17.9063 18.5279 17.3521 18.9724 16.9156 19.5219L10.0625 15.2375C10.3122 14.4314 10.3122 13.5686 10.0625 12.7625L16.9156 8.47812C17.6112 9.33941 18.5891 9.92672 19.6763 10.136C20.7634 10.3453 21.8895 10.163 22.8551 9.62152C23.8208 9.08001 24.5636 8.21421 24.9519 7.17748C25.3403 6.14075 25.3492 5.00001 24.9771 3.95734C24.605 2.91467 23.8758 2.03736 22.9187 1.48083C21.9617 0.924306 20.8386 0.724477 19.7483 0.916746C18.658 1.10901 17.671 1.68097 16.962 2.53129C16.2531 3.38162 15.868 4.45542 15.875 5.56249C15.8794 5.98172 15.9425 6.39827 16.0625 6.79999L9.20933 11.0844C8.60431 10.3227 7.77734 9.76816 6.84304 9.49755C5.90874 9.22694 4.91339 9.25368 3.99497 9.57407C3.07655 9.89446 2.28054 10.4926 1.71729 11.2857C1.15404 12.0787 0.85144 13.0273 0.85144 14C0.85144 14.9727 1.15404 15.9213 1.71729 16.7143C2.28054 17.5074 3.07655 18.1055 3.99497 18.4259C4.91339 18.7463 5.90874 18.773 6.84304 18.5024C7.77734 18.2318 8.60431 17.6773 9.20933 16.9156L16.0625 21.2C15.9425 21.6017 15.8794 22.0183 15.875 22.4375C15.875 23.3646 16.1499 24.2709 16.6649 25.0417C17.18 25.8126 17.9121 26.4134 18.7686 26.7682C19.6252 27.123 20.5677 27.2158 21.4769 27.0349C22.3862 26.8541 23.2215 26.4076 23.877 25.7521C24.5326 25.0965 24.979 24.2613 25.1599 23.352C25.3408 22.4427 25.2479 21.5002 24.8931 20.6437C24.5384 19.7871 23.9375 19.055 23.1667 18.54C22.3958 18.0249 21.4896 17.75 20.5625 17.75ZM20.5625 2.74999C21.1187 2.74999 21.6625 2.91494 22.125 3.22398C22.5875 3.53303 22.948 3.97228 23.1609 4.4862C23.3737 5.00011 23.4294 5.56561 23.3209 6.11118C23.2124 6.65676 22.9445 7.1579 22.5512 7.55123C22.1579 7.94457 21.6567 8.21243 21.1112 8.32095C20.5656 8.42947 20.0001 8.37378 19.4862 8.1609C18.9722 7.94803 18.533 7.58755 18.2239 7.12503C17.9149 6.66252 17.75 6.11875 17.75 5.56249C17.75 4.81657 18.0463 4.1012 18.5737 3.57376C19.1012 3.04631 19.8165 2.74999 20.5625 2.74999ZM5.56246 16.8125C5.0062 16.8125 4.46243 16.6475 3.99992 16.3385C3.5374 16.0295 3.17692 15.5902 2.96405 15.0763C2.75118 14.5624 2.69548 13.9969 2.804 13.4513C2.91252 12.9057 3.18039 12.4046 3.57372 12.0113C3.96706 11.6179 4.4682 11.3501 5.01377 11.2415C5.55934 11.133 6.12484 11.1887 6.63876 11.4016C7.15267 11.6145 7.59193 11.9749 7.90097 12.4375C8.21001 12.9 8.37496 13.4437 8.37496 14C8.37496 14.7459 8.07864 15.4613 7.5512 15.9887C7.02375 16.5162 6.30838 16.8125 5.56246 16.8125ZM20.5625 25.25C20.0062 25.25 19.4624 25.085 18.9999 24.776C18.5374 24.467 18.1769 24.0277 17.964 23.5138C17.7512 22.9999 17.6955 22.4344 17.804 21.8888C17.9125 21.3432 18.1804 20.8421 18.5737 20.4488C18.9671 20.0554 19.4682 19.7876 20.0138 19.679C20.5593 19.5705 21.1248 19.6262 21.6388 19.8391C22.1527 20.052 22.5919 20.4124 22.901 20.875C23.21 21.3375 23.375 21.8812 23.375 22.4375C23.375 23.1834 23.0786 23.8988 22.5512 24.4262C22.0238 24.9537 21.3084 25.25 20.5625 25.25Z" fill="#0C54A1"/>
</svg>
