<svg width="25" height="25" viewBox="0 0 25 25" fill="none" xmlns="http://www.w3.org/2000/svg">
<path d="M18.8372 3.80488C19.3219 3.80488 19.7224 4.20045 19.7858 4.71367L19.7946 4.85635L19.7944 21.3995L23.364 17.4636C23.737 17.052 24.3432 17.0505 24.718 17.4601C25.0587 17.8326 25.0908 18.4166 24.8136 18.829L24.7211 18.9471L19.5156 24.6905C19.4842 24.7243 19.4523 24.7551 19.4186 24.7834L19.5156 24.6905C19.4686 24.7423 19.418 24.7876 19.3645 24.8265C19.3459 24.8392 19.3265 24.8522 19.3067 24.8645C19.2883 24.8767 19.2696 24.8874 19.2507 24.8973C19.232 24.9064 19.213 24.9156 19.1937 24.9241C19.1693 24.9356 19.1441 24.9453 19.1188 24.9539C19.1038 24.9583 19.0885 24.963 19.073 24.9673C19.0454 24.9756 19.0177 24.9819 18.9899 24.9868C18.9768 24.9884 18.9631 24.9905 18.9494 24.9923C18.9179 24.997 18.8867 24.9993 18.8555 25C18.8494 24.9994 18.8433 24.9994 18.8372 24.9994L18.8185 25C18.7873 24.9993 18.7561 24.997 18.7251 24.993L18.8372 24.9994C18.785 24.9994 18.7338 24.9948 18.6839 24.986C18.6563 24.9819 18.6286 24.9756 18.6012 24.968C18.5866 24.9632 18.5721 24.9587 18.5577 24.9539C18.5302 24.9455 18.503 24.9349 18.4761 24.9229C18.4614 24.9155 18.4472 24.9087 18.4332 24.9015C18.4111 24.8912 18.389 24.8787 18.3673 24.8653C18.3477 24.8522 18.3284 24.8392 18.3095 24.8255C18.2948 24.8158 18.2803 24.8046 18.266 24.7929L18.2558 24.7834C18.2221 24.7551 18.1901 24.7243 18.1602 24.6914L18.1585 24.6905L12.9529 18.9471C12.5799 18.5356 12.5813 17.8698 12.956 17.4601C13.2967 17.0877 13.8287 17.0551 14.2029 17.3615L14.31 17.4636L17.8796 21.4023L17.8797 4.85635C17.8797 4.27564 18.3084 3.80488 18.8372 3.80488ZM6.16284 0.000583628L6.18149 0C6.21269 0.000658292 6.24386 0.0029813 6.27489 0.00696903L6.16284 0.000583628C6.215 0.000583628 6.26618 0.00516399 6.31607 0.0139785C6.34336 0.0180746 6.37076 0.0242656 6.39791 0.0317815C6.41387 0.0369253 6.43015 0.0419415 6.44624 0.0474114C6.47138 0.055195 6.49571 0.0646563 6.51973 0.075229C6.5371 0.0837202 6.55468 0.0921598 6.57198 0.101152C6.59254 0.110915 6.61278 0.122403 6.63271 0.134737C6.64978 0.146277 6.66667 0.157518 6.68322 0.169304C6.70024 0.18042 6.71729 0.19343 6.73402 0.207117L6.84154 0.309493L12.0471 6.05286C12.4201 6.46443 12.4187 7.13018 12.044 7.53986C11.7033 7.91229 11.1713 7.94488 10.7971 7.6385L10.69 7.53642L7.11941 3.59603L7.12026 20.1436C7.12026 20.7244 6.69161 21.1951 6.16284 21.1951C5.67813 21.1951 5.27755 20.7995 5.21415 20.2863L5.20541 20.1436L5.20456 3.59743L1.63599 7.53642C1.29687 7.91058 0.765042 7.94587 0.389586 7.64139L0.281989 7.53986C-0.0587021 7.16743 -0.0908317 6.58336 0.186407 6.17103L0.278861 6.05286L5.48442 0.309493L5.54079 0.252718C5.55403 0.24028 5.56758 0.228232 5.58143 0.21659L5.48442 0.309493C5.53138 0.257675 5.58204 0.212359 5.63546 0.173546C5.6541 0.160793 5.67348 0.147773 5.69329 0.135506C5.71168 0.123331 5.73038 0.112648 5.74932 0.102688C5.76801 0.0936013 5.78698 0.084432 5.80625 0.0759313C5.83074 0.0644308 5.85585 0.0546938 5.88123 0.0461408C5.89667 0.0415871 5.91249 0.0367328 5.92846 0.0323192C5.95418 0.0245609 5.98018 0.0186297 6.00632 0.0138929C6.02205 0.0117331 6.03746 0.00937792 6.05298 0.00743043C6.08253 0.00297141 6.11285 0.000712266 6.1432 2.78579e-05C6.14989 0.000654333 6.15636 0.000583628 6.16284 0.000583628Z" fill="#0C54A1"/>
</svg>
