<svg width="20" height="20" viewBox="0 0 20 20" fill="none" xmlns="http://www.w3.org/2000/svg">
<path d="M3.65957 14.0837V17.5841L7.2766 16.7193L10 19.3548L12.7234 16.7193L16.3404 17.5841V14.0837L20 13.1778L18.1702 9.67742L20 6.17708L16.3404 5.27111V1.77076L12.7234 2.63555L10 0L7.2766 2.63555L3.65957 1.77076V5.27111L0 6.17708L1.82979 9.67742L0 13.1778L3.65957 14.0837ZM3.44681 8.89499L2.6383 7.28895L4.08511 6.95951C4.51064 6.87715 4.84397 6.67811 5.08511 6.36239C5.32624 6.04667 5.44681 5.68291 5.44681 5.27111V4.03569L6.80851 4.40631H7.2766C7.75886 4.40631 8.1844 4.22787 8.55319 3.87097L10 2.47083L11.4468 3.87097C11.8156 4.22787 12.2411 4.40631 12.7234 4.40631C12.8936 4.40631 13.0496 4.37886 13.1915 4.32395L14.5532 4.03569V5.27111C14.5532 5.68291 14.6738 6.04667 14.9149 6.36239C15.156 6.67811 15.4894 6.87715 15.9149 6.95951L17.3617 7.28895L16.5532 8.89499C16.2695 9.41661 16.2695 9.93823 16.5532 10.4598L17.3617 12.0659L15.9149 12.3953C15.4894 12.4777 15.156 12.6767 14.9149 12.9925C14.6738 13.3082 14.5532 13.6719 14.5532 14.0837V15.3191L13.1915 14.9485H12.7234C12.2411 14.9485 11.8156 15.127 11.4468 15.4839L10 16.884L8.55319 15.4839C8.1844 15.127 7.75886 14.9485 7.2766 14.9485C7.10638 14.9485 6.95035 14.976 6.80851 15.0309L5.44681 15.3191V14.0837C5.44681 13.6719 5.32624 13.3082 5.08511 12.9925C4.84397 12.6767 4.51064 12.4777 4.08511 12.3953L2.6383 12.0659L3.44681 10.4598C3.7305 9.93823 3.7305 9.41661 3.44681 8.89499ZM9.10638 12.6836L13.3617 8.52437C13.7589 8.14001 13.7589 7.72821 13.3617 7.28895C12.9362 6.93205 12.5106 6.93205 12.0851 7.28895L9.10638 10.2128L7.91489 9.05971C7.48936 8.70281 7.06383 8.70281 6.6383 9.05971C6.2695 9.47152 6.2695 9.88332 6.6383 10.2951L9.10638 12.6836Z" fill="#424242"/>
</svg>
