<svg width="36" height="24" viewBox="0 0 36 24" fill="none" xmlns="http://www.w3.org/2000/svg">
<g clip-path="url(#clip0_4051_2)">
<path d="M30.8594 13.4688H28.7031C28.849 13.0833 29.1927 12.151 29.7344 10.6719L29.7812 10.5312C29.8229 10.4271 29.875 10.2917 29.9375 10.125C30 9.95833 30.0469 9.82292 30.0781 9.71875L30.2656 10.5781L30.8594 13.4688ZM8.29688 12.4531L7.39062 7.84375C7.27604 7.28125 6.88542 7 6.21875 7H2.03125L2 7.20312C5.23958 8.02604 7.33854 9.77604 8.29688 12.4531ZM11.0938 7L8.5625 13.8438L8.29688 12.4531C8.02604 11.724 7.58333 11.0495 6.96875 10.4297C6.35417 9.8099 5.67188 9.34896 4.92188 9.04688L7.03125 17.0156H9.76562L13.8438 7H11.0938ZM13.2656 17.0312H15.8594L17.4844 7H14.8906L13.2656 17.0312ZM25.2656 7.25C24.5469 6.96875 23.7708 6.82812 22.9375 6.82812C21.6562 6.82812 20.6094 7.13542 19.7969 7.75C18.9844 8.36458 18.5729 9.16146 18.5625 10.1406C18.5521 11.2031 19.3073 12.1094 20.8281 12.8594C21.3281 13.099 21.6771 13.3125 21.875 13.5C22.0729 13.6875 22.1719 13.8906 22.1719 14.1094C22.1719 14.4219 22.0156 14.6615 21.7031 14.8281C21.3906 14.9948 21.0312 15.0781 20.625 15.0781C19.7292 15.0781 18.9167 14.9062 18.1875 14.5625L17.8438 14.3906L17.4844 16.6406C18.2552 16.9948 19.2188 17.1719 20.375 17.1719C21.7292 17.1823 22.8151 16.875 23.6328 16.25C24.4505 15.625 24.8698 14.7917 24.8906 13.75C24.8906 12.6458 24.1615 11.7396 22.7031 11.0312C22.1927 10.7708 21.8229 10.5521 21.5938 10.375C21.3646 10.1979 21.25 10 21.25 9.78125C21.25 9.55208 21.3776 9.35156 21.6328 9.17969C21.888 9.00781 22.2552 8.92188 22.7344 8.92188C23.4635 8.91146 24.1094 9.03646 24.6719 9.29688L24.9062 9.42188L25.2656 7.25ZM31.9062 7H29.9062C29.2292 7 28.776 7.28125 28.5469 7.84375L24.7031 17.0312H27.4219L27.9688 15.5312H31.2812C31.3333 15.7604 31.4375 16.2604 31.5938 17.0312H34L31.9062 7ZM36 2V22C36 22.5417 35.8021 23.0104 35.4062 23.4062C35.0104 23.8021 34.5417 24 34 24H2C1.45833 24 0.989583 23.8021 0.59375 23.4062C0.197917 23.0104 0 22.5417 0 22V2C0 1.45833 0.197917 0.989583 0.59375 0.59375C0.989583 0.197917 1.45833 0 2 0H34C34.5417 0 35.0104 0.197917 35.4062 0.59375C35.8021 0.989583 36 1.45833 36 2Z" fill="#777777"/>
</g>
<defs>
<clipPath id="clip0_4051_2">
<rect width="36" height="24" fill="white"/>
</clipPath>
</defs>
</svg>
