<svg width="21" height="19" viewBox="0 0 21 19" fill="none" xmlns="http://www.w3.org/2000/svg">
<path d="M12.2535 7.96698C12.1703 7.96641 12.0903 7.99878 12.0309 8.05701C11.9715 8.11523 11.9375 8.1946 11.9364 8.27778V10.6004C11.9375 10.6837 11.9716 10.7633 12.0313 10.8215C12.0909 10.8798 12.1712 10.912 12.2545 10.9112H19.2507C19.3341 10.912 19.4144 10.8798 19.474 10.8215C19.5336 10.7633 19.5677 10.6837 19.5688 10.6004V8.27778C19.5677 8.19441 19.5336 8.11489 19.474 8.05663C19.4144 7.99837 19.3341 7.96613 19.2507 7.96698H12.2535ZM16.5438 0.579175C17.5119 0.625375 18.208 0.816475 18.649 1.22177C19.0848 1.62287 19.3084 2.20353 19.3525 2.97213V5.17397C19.3503 5.36149 19.2738 5.54046 19.1397 5.67157C19.0056 5.80269 18.825 5.87524 18.6375 5.87328C18.5446 5.87439 18.4523 5.85718 18.366 5.82263C18.2797 5.78809 18.2011 5.73689 18.1346 5.67195C18.0681 5.60701 18.0151 5.52961 17.9785 5.44417C17.9419 5.35873 17.9225 5.26691 17.9214 5.17397L17.9224 3.01203C17.8993 2.61303 17.8038 2.36523 17.6673 2.23923C17.535 2.11743 17.1318 2.00823 16.5091 1.97673H2.77935C2.2155 1.99773 1.84905 2.10483 1.6716 2.25708C1.5351 2.37363 1.4322 2.69493 1.43115 3.25038L1.428 15.6089C1.4805 16.1486 1.59915 16.5087 1.7514 16.6883C1.8669 16.8248 2.22495 16.9613 2.75205 17.0285H16.5238C17.1686 17.0411 17.5486 16.9445 17.6767 16.8153C17.8185 16.6715 17.9214 16.2935 17.9214 15.675V13.5278C17.9214 13.1424 18.2416 12.8285 18.6375 12.8285C19.0323 12.8285 19.3525 13.1424 19.3525 13.5278V15.675C19.3525 16.62 19.1593 17.3267 18.7068 17.7855C18.2406 18.258 17.4993 18.447 16.5091 18.426L2.667 18.4229C1.72515 18.3137 1.05 18.0554 0.64785 17.5797C0.2835 17.1492 0.08085 16.535 0 15.6761V3.24933C0.0021 2.32953 0.2226 1.63757 0.7287 1.20497C1.1928 0.805975 1.8627 0.611725 2.75205 0.578125H16.5438V0.579175ZM19.2507 6.56838C20.2167 6.56838 21 7.33383 21 8.27778V10.6004C21 11.5443 20.2167 12.3098 19.2507 12.3098H12.2545C11.2885 12.3098 10.5052 11.5433 10.5052 10.6004V8.27778C10.5052 7.33383 11.2885 6.56838 12.2545 6.56838H19.2507ZM14.0038 8.60538C13.5208 8.60538 13.1292 8.98338 13.1292 9.44853C13.1292 9.91473 13.5208 10.2917 14.0038 10.2917C14.4868 10.2917 14.8785 9.91368 14.8785 9.44853C14.8785 8.98233 14.4868 8.60433 14.0038 8.60433V8.60538Z" fill="#142A65"/>
</svg>
