<svg width="22" height="22" viewBox="0 0 22 22" fill="none" xmlns="http://www.w3.org/2000/svg">
<path d="M11 20.625C8.44729 20.625 5.99913 19.6109 4.1941 17.8059C2.38906 16.0009 1.375 13.5527 1.375 11C1.375 8.44729 2.38906 5.99913 4.1941 4.1941C5.99913 2.38906 8.44729 1.375 11 1.375C13.5527 1.375 16.0009 2.38906 17.8059 4.1941C19.6109 5.99913 20.625 8.44729 20.625 11C20.625 13.5527 19.6109 16.0009 17.8059 17.8059C16.0009 19.6109 13.5527 20.625 11 20.625ZM11 22C13.9174 22 16.7153 20.8411 18.7782 18.7782C20.8411 16.7153 22 13.9174 22 11C22 8.08262 20.8411 5.28473 18.7782 3.22183C16.7153 1.15893 13.9174 0 11 0C8.08262 0 5.28473 1.15893 3.22183 3.22183C1.15893 5.28473 0 8.08262 0 11C0 13.9174 1.15893 16.7153 3.22183 18.7782C5.28473 20.8411 8.08262 22 11 22V22Z" fill="#991A4E"/>
<path d="M9.62769 15.125C9.62769 14.9444 9.66325 14.7656 9.73235 14.5988C9.80145 14.432 9.90273 14.2804 10.0304 14.1527C10.1581 14.0251 10.3097 13.9238 10.4765 13.8547C10.6433 13.7856 10.8221 13.75 11.0027 13.75C11.1833 13.75 11.3621 13.7856 11.5289 13.8547C11.6957 13.9238 11.8473 14.0251 11.975 14.1527C12.1026 14.2804 12.2039 14.432 12.273 14.5988C12.3421 14.7656 12.3777 14.9444 12.3777 15.125C12.3777 15.4897 12.2328 15.8394 11.975 16.0973C11.7171 16.3551 11.3674 16.5 11.0027 16.5C10.638 16.5 10.2883 16.3551 10.0304 16.0973C9.77255 15.8394 9.62769 15.4897 9.62769 15.125V15.125ZM9.76244 6.86813C9.74413 6.69467 9.76249 6.51928 9.81634 6.35337C9.87018 6.18746 9.95831 6.03472 10.075 5.90507C10.1917 5.77541 10.3343 5.67174 10.4937 5.60077C10.653 5.52981 10.8255 5.49313 10.9999 5.49313C11.1744 5.49313 11.3469 5.52981 11.5062 5.60077C11.6655 5.67174 11.8082 5.77541 11.9249 5.90507C12.0416 6.03472 12.1297 6.18746 12.1835 6.35337C12.2374 6.51928 12.2557 6.69467 12.2374 6.86813L11.7562 11.6903C11.74 11.8797 11.6533 12.0562 11.5133 12.1848C11.3733 12.3134 11.1901 12.3847 10.9999 12.3847C10.8098 12.3847 10.6266 12.3134 10.4866 12.1848C10.3465 12.0562 10.2599 11.8797 10.2437 11.6903L9.76244 6.86813Z" fill="#991A4E"/>
</svg>
