<svg width="23" height="25" viewBox="0 0 23 25" fill="none" xmlns="http://www.w3.org/2000/svg">
<path d="M22.6371 20.0944L22.3821 19.8694C21.6587 19.2248 21.0255 18.4857 20.4996 17.6719C19.9253 16.5488 19.581 15.3223 19.4871 14.0644V10.3594C19.4921 8.38359 18.7754 6.47398 17.4717 4.98936C16.168 3.50473 14.367 2.54727 12.4071 2.29688V1.32938C12.4071 1.06383 12.3016 0.809155 12.1138 0.621384C11.9261 0.433614 11.6714 0.328125 11.4059 0.328125C11.1403 0.328125 10.8856 0.433614 10.6979 0.621384C10.5101 0.809155 10.4046 1.06383 10.4046 1.32938V2.31188C8.4623 2.58032 6.68309 3.54357 5.39651 5.02321C4.10992 6.50284 3.40316 8.39861 3.40711 10.3594V14.0644C3.31318 15.3223 2.96894 16.5488 2.39461 17.6719C1.87777 18.4836 1.25476 19.2227 0.542109 19.8694L0.287109 20.0944V22.2094H22.6371V20.0944Z" fill="white"/>
<path d="M9.49023 23C9.556 23.4754 9.79158 23.911 10.1534 24.2262C10.5153 24.5415 10.979 24.7151 11.459 24.7151C11.9389 24.7151 12.4026 24.5415 12.7645 24.2262C13.1264 23.911 13.362 23.4754 13.4277 23H9.49023Z" fill="white"/>
</svg>
